CommonSans-Expanded.ufo
<glyph name="exclam" format="2">
  <advance width="190"/>
  <unicode hex="0021"/>
  <outline>
    <contour>
      <point x="51" y="0" type="line"/>
      <point x="141" y="0" type="line"/>
      <point x="141" y="90" type="line"/>
      <point x="51" y="90" type="line"/>
    </contour>
    <contour>
      <point x="68" y="160" type="line"/>
      <point x="122" y="160" type="line"/>
      <point x="145" y="420" type="line"/>
      <point x="145" y="700" type="line"/>
      <point x="45" y="700" type="line"/>
      <point x="45" y="420" type="line"/>
    </contour>
  </outline>
</glyph>
<glyph name="parenleft" format="2">
  <advance width="253"/>
  <unicode hex="0028"/>
  <outline>
    <contour>
      <point x="40" y="230" type="curve" smooth="yes"/>
      <point x="40" y="109"/>
      <point x="82" y="-14"/>
      <point x="127" y="-125" type="curve" smooth="yes"/>
      <point x="150" y="-180" type="line"/>
      <point x="167" y="-180"/>
      <point x="196" y="-180"/>
      <point x="213" y="-180" type="curve"/>
      <point x="163" y="-45"/>
      <point x="132" y="89"/>
      <point x="132" y="230" type="curve" smooth="yes"/>
      <point x="132" y="359"/>
      <point x="150" y="491"/>
      <point x="193" y="623" type="curve" smooth="yes"/>
      <point x="199" y="642"/>
      <point x="206" y="661"/>
      <point x="213" y="680" type="curve"/>
      <point x="161" y="680" type="line"/>
      <point x="150" y="658"/>
      <point x="139" y="637"/>
      <point x="130" y="616" type="curve" smooth="yes"/>
      <point x="64" y="471"/>
      <point x="40" y="355"/>
    </contour>
  </outline>
</glyph>
<glyph name="asterisk" format="2">
  <advance width="543"/>
  <unicode hex="002A"/>
  <outline>
    <contour>
      <point x="270" y="257" type="line"/>
      <point x="115" y="394" type="line"/>
      <point x="66" y="305" type="line"/>
      <point x="265" y="247" type="line"/>
    </contour>
    <contour>
      <point x="264" y="257" type="line"/>
      <point x="86" y="152" type="line"/>
      <point x="155" y="78" type="line"/>
      <point x="271" y="249" type="line"/>
    </contour>
    <contour>
      <point x="273" y="250" type="line"/>
      <point x="387" y="442" type="line"/>
      <point x="282" y="476" type="line"/>
      <point x="261" y="254" type="line"/>
    </contour>
    <contour>
      <point x="263" y="251" type="line"/>
      <point x="263" y="75" type="line"/>
      <point x="348" y="95" type="line"/>
      <point x="272" y="253" type="line"/>
    </contour>
    <contour>
      <point x="267" y="246" type="line"/>
      <point x="485" y="197" type="line"/>
      <point x="485" y="307" type="line"/>
      <point x="267" y="258" type="line"/>
    </contour>
  </outline>
</glyph>
<glyph name="slash" format="2">
  <advance width="433"/>
  <unicode hex="002F"/>
  <outline>
    <contour>
      <point x="31" y="0" type="line"/>
      <point x="134" y="0" type="line"/>
      <point x="401" y="700" type="line"/>
      <point x="302" y="700" type="line"/>
    </contour>
  </outline>
</glyph>
<glyph name="three" format="2">
  <advance width="520"/>
  <unicode hex="0033"/>
  <outline>
    <contour>
      <point x="40" y="162" type="line"/>
      <point x="40" y="45"/>
      <point x="143" y="-12"/>
      <point x="250" y="-12" type="curve" smooth="yes"/>
      <point x="378" y="-12"/>
      <point x="481" y="53"/>
      <point x="481" y="200" type="curve" smooth="yes"/>
      <point x="481" y="328"/>
      <point x="413" y="373"/>
      <point x="328" y="387" type="curve"/>
      <point x="330" y="378" type="line"/>
      <point x="397" y="405"/>
      <point x="435" y="465"/>
      <point x="435" y="532" type="curve" smooth="yes"/>
      <point x="435" y="650"/>
      <point x="358" y="712"/>
      <point x="233" y="712" type="curve" smooth="yes"/>
      <point x="131" y="712"/>
      <point x="40" y="654"/>
      <point x="40" y="549" type="curve"/>
      <point x="137" y="549" type="line"/>
      <point x="137" y="594"/>
      <point x="183" y="623"/>
      <point x="235" y="623" type="curve" smooth="yes"/>
      <point x="296" y="623"/>
      <point x="334" y="582"/>
      <point x="334" y="530" type="curve" smooth="yes"/>
      <point x="334" y="436"/>
      <point x="305" y="419"/>
      <point x="233" y="419" type="curve" smooth="yes"/>
      <point x="189" y="419" type="line"/>
      <point x="189" y="330" type="line"/>
      <point x="236" y="330" type="line" smooth="yes"/>
      <point x="314" y="330"/>
      <point x="380" y="307"/>
      <point x="380" y="201" type="curve" smooth="yes"/>
      <point x="380" y="110"/>
      <point x="315" y="77"/>
      <point x="251" y="77" type="curve" smooth="yes"/>
      <point x="202" y="77"/>
      <point x="137" y="105"/>
      <point x="137" y="162" type="curve"/>
    </contour>
  </outline>
</glyph>
<glyph name="six" format="2">
  <advance width="531"/>
  <unicode hex="0036"/>
  <outline>
    <contour>
      <point x="134" y="232" type="curve" smooth="yes"/>
      <point x="134" y="344"/>
      <point x="212" y="371"/>
      <point x="273" y="371" type="curve" smooth="yes"/>
      <point x="319" y="371"/>
      <point x="393" y="343"/>
      <point x="393" y="230" type="curve" smooth="yes"/>
      <point x="393" y="137"/>
      <point x="342" y="77"/>
      <point x="260" y="77" type="curve" smooth="yes"/>
      <point x="181" y="77"/>
      <point x="134" y="135"/>
    </contour>
    <contour>
      <point x="36" y="276" type="curve" smooth="yes"/>
      <point x="36" y="93"/>
      <point x="120" y="-12"/>
      <point x="263" y="-12" type="curve" smooth="yes"/>
      <point x="397" y="-12"/>
      <point x="493" y="81"/>
      <point x="493" y="223" type="curve" smooth="yes"/>
      <point x="493" y="372"/>
      <point x="399" y="453"/>
      <point x="283" y="453" type="curve" smooth="yes"/>
      <point x="215" y="453"/>
      <point x="164" y="418"/>
      <point x="138" y="368" type="curve"/>
      <point x="135" y="368" type="line"/>
      <point x="150" y="558"/>
      <point x="182" y="623"/>
      <point x="266" y="623" type="curve" smooth="yes"/>
      <point x="336" y="623"/>
      <point x="352" y="603"/>
      <point x="370" y="568" type="curve"/>
      <point x="470" y="568" type="line"/>
      <point x="442" y="656"/>
      <point x="382" y="712"/>
      <point x="268" y="712" type="curve" smooth="yes"/>
      <point x="90" y="712"/>
      <point x="36" y="523"/>
    </contour>
  </outline>
</glyph>
<glyph name="seven" format="2">
  <advance width="560"/>
  <unicode hex="0037"/>
  <outline>
    <contour>
      <point x="50" y="610" type="line"/>
      <point x="510" y="610" type="line"/>
      <point x="510" y="700" type="line"/>
      <point x="50" y="700" type="line"/>
    </contour>
    <contour>
      <point x="169" y="0" type="curve"/>
      <point x="270" y="0" type="line"/>
      <point x="270" y="264"/>
      <point x="351" y="413"/>
      <point x="510" y="610" type="curve"/>
      <point x="510" y="625" type="line"/>
      <point x="419" y="625" type="line"/>
      <point x="253" y="433"/>
      <point x="169" y="273"/>
    </contour>
  </outline>
</glyph>
<glyph name="colon" format="2">
  <advance width="188"/>
  <unicode hex="003A"/>
  <outline>
    <contour>
      <point x="49" y="0" type="line"/>
      <point x="139" y="0" type="line"/>
      <point x="139" y="90" type="line"/>
      <point x="49" y="90" type="line"/>
    </contour>
    <contour>
      <point x="49" y="370" type="line"/>
      <point x="139" y="370" type="line"/>
      <point x="139" y="460" type="line"/>
      <point x="49" y="460" type="line"/>
    </contour>
  </outline>
</glyph>
<glyph name="semicolon" format="2">
  <advance width="186"/>
  <unicode hex="003B"/>
  <outline>
    <contour>
      <point x="49" y="-110" type="line"/>
      <point x="92" y="-110" type="line"/>
      <point x="138" y="20" type="line"/>
      <point x="138" y="110" type="line"/>
      <point x="49" y="110" type="line"/>
      <point x="49" y="20" type="line"/>
      <point x="71" y="20" type="line"/>
    </contour>
    <contour>
      <point x="48" y="370" type="line"/>
      <point x="138" y="370" type="line"/>
      <point x="138" y="460" type="line"/>
      <point x="48" y="460" type="line"/>
    </contour>
  </outline>
</glyph>
<glyph name="less" format="2">
  <advance width="514"/>
  <unicode hex="003C"/>
  <outline>
    <contour>
      <point x="34" y="296" type="line"/>
      <point x="466" y="96" type="line"/>
      <point x="466" y="175" type="line"/>
      <point x="97" y="346" type="line"/>
      <point x="97" y="326" type="line"/>
      <point x="466" y="495" type="line"/>
      <point x="466" y="574" type="line"/>
      <point x="34" y="374" type="line"/>
    </contour>
  </outline>
</glyph>
<glyph name="question" format="2">
  <advance width="502"/>
  <unicode hex="003F"/>
  <outline>
    <contour>
      <point x="40" y="480" type="curve"/>
      <point x="129" y="480" type="line"/>
      <point x="133" y="557"/>
      <point x="172" y="620"/>
      <point x="250" y="620" type="curve" smooth="yes"/>
      <point x="357" y="620"/>
      <point x="372" y="561"/>
      <point x="372" y="498" type="curve" smooth="yes"/>
      <point x="372" y="399"/>
      <point x="185" y="354"/>
      <point x="185" y="180" type="curve" smooth="yes"/>
      <point x="185" y="140" type="line"/>
      <point x="275" y="140" type="line"/>
      <point x="275" y="180" type="line" smooth="yes"/>
      <point x="275" y="319"/>
      <point x="462" y="335"/>
      <point x="462" y="509" type="curve" smooth="yes"/>
      <point x="462" y="630"/>
      <point x="396" y="710"/>
      <point x="250" y="710" type="curve" smooth="yes"/>
      <point x="129" y="710"/>
      <point x="40" y="620"/>
    </contour>
    <contour>
      <point x="185" y="0" type="line"/>
      <point x="275" y="0" type="line"/>
      <point x="275" y="90" type="line"/>
      <point x="185" y="90" type="line"/>
    </contour>
  </outline>
</glyph>
<glyph name="at" format="2">
  <advance width="1020"/>
  <unicode hex="0040"/>
  <outline>
    <contour>
      <point x="396" y="289" type="curve" smooth="yes"/>
      <point x="396" y="353"/>
      <point x="446" y="436"/>
      <point x="515" y="436" type="curve" smooth="yes"/>
      <point x="561" y="436"/>
      <point x="581" y="411"/>
      <point x="581" y="378" type="curve" smooth="yes"/>
      <point x="581" y="366"/>
      <point x="578" y="353"/>
      <point x="573" y="339" type="curve" smooth="yes"/>
      <point x="545" y="261" type="line" smooth="yes"/>
      <point x="538" y="242"/>
      <point x="498" y="219"/>
      <point x="459" y="219" type="curve" smooth="yes"/>
      <point x="412" y="219"/>
      <point x="396" y="245"/>
    </contour>
    <contour>
      <point x="181" y="312" type="curve" smooth="yes"/>
      <point x="181" y="136"/>
      <point x="313" y="-2"/>
      <point x="485" y="-2" type="curve" smooth="yes"/>
      <point x="554" y="-2"/>
      <point x="614" y="15"/>
      <point x="663" y="44" type="curve"/>
      <point x="663" y="96" type="line"/>
      <point x="609" y="68"/>
      <point x="566" y="57"/>
      <point x="514" y="57" type="curve" smooth="yes"/>
      <point x="357" y="57"/>
      <point x="253" y="173"/>
      <point x="253" y="313" type="curve" smooth="yes"/>
      <point x="253" y="502"/>
      <point x="404" y="580"/>
      <point x="508" y="580" type="curve" smooth="yes"/>
      <point x="594" y="580"/>
      <point x="775" y="546"/>
      <point x="775" y="366" type="curve" smooth="yes"/>
      <point x="775" y="281"/>
      <point x="743" y="179"/>
      <point x="643" y="179" type="curve" smooth="yes"/>
      <point x="610" y="179"/>
      <point x="600" y="199"/>
      <point x="600" y="224" type="curve" smooth="yes"/>
      <point x="600" y="243"/>
      <point x="606" y="265"/>
      <point x="612" y="283" type="curve" smooth="yes"/>
      <point x="677" y="465" type="line"/>
      <point x="617" y="465" type="line"/>
      <point x="602" y="421" type="line"/>
      <point x="602" y="468"/>
      <point x="566" y="491"/>
      <point x="522" y="491" type="curve" smooth="yes"/>
      <point x="406" y="491"/>
      <point x="325" y="385"/>
      <point x="325" y="276" type="curve" smooth="yes"/>
      <point x="325" y="218"/>
      <point x="354" y="158"/>
      <point x="420" y="158" type="curve" smooth="yes"/>
      <point x="469" y="158"/>
      <point x="522" y="191"/>
      <point x="549" y="216" type="curve"/>
      <point x="548" y="212"/>
      <point x="548" y="207"/>
      <point x="548" y="203" type="curve" smooth="yes"/>
      <point x="548" y="158"/>
      <point x="581" y="128"/>
      <point x="631" y="128" type="curve" smooth="yes"/>
      <point x="754" y="128"/>
      <point x="839" y="252"/>
      <point x="839" y="367" type="curve" smooth="yes"/>
      <point x="839" y="579"/>
      <point x="651" y="648"/>
      <point x="508" y="648" type="curve" smooth="yes"/>
      <point x="360" y="648"/>
      <point x="181" y="543"/>
    </contour>
  </outline>
</glyph>
<glyph name="A" format="2">
  <advance width="650"/>
  <unicode hex="0041"/>
  <anchor x="326" y="740" name="top"/>
  <anchor x="325" y="639" name="t.ring"/>
  <anchor x="317" y="-40" name="bottom"/>
  <anchor x="607" y="0" name="b.ogonek"/>
  <outline>
    <contour>
      <point x="165" y="187" type="line"/>
      <point x="489" y="187" type="line"/>
      <point x="489" y="276" type="line"/>
      <point x="165" y="276" type="line"/>
    </contour>
    <contour>
      <point x="10" y="0" type="line"/>
      <point x="112" y="0" type="line"/>
      <point x="267" y="407" type="line"/>
      <point x="352" y="673" type="line"/>
      <point x="299" y="673" type="line"/>
      <point x="384" y="407" type="line"/>
      <point x="539" y="0" type="line"/>
      <point x="640" y="0" type="line"/>
      <point x="380" y="680" type="line"/>
      <point x="270" y="680" type="line"/>
    </contour>
  </outline>
  <guideline angle="90" x="325" y="0"/>
  <guideline angle="69.1036" x="-2" y="0"/>
  <guideline angle="249.107" x="353" y="634"/>
  <guideline angle="110.893" x="523" y="0"/>
  <guideline angle="290.896" x="376" y="680"/>
</glyph>
<glyph name="B" format="2">
  <advance width="681"/>
  <unicode hex="0042"/>
  <anchor x="323" y="-40" name="bottom"/>
  <anchor x="323" y="740" name="top"/>
  <outline>
    <contour>
      <point x="59" y="0" type="line"/>
      <point x="158" y="0" type="line"/>
      <point x="158" y="680" type="line"/>
      <point x="59" y="680" type="line"/>
    </contour>
    <contour>
      <point x="135" y="0" type="line"/>
      <point x="389" y="0" type="line" smooth="yes"/>
      <point x="536" y="0"/>
      <point x="633" y="79"/>
      <point x="633" y="200" type="curve" smooth="yes"/>
      <point x="633" y="289"/>
      <point x="583" y="360"/>
      <point x="508" y="378" type="curve"/>
      <point x="508" y="374" type="line"/>
      <point x="572" y="386"/>
      <point x="620" y="445"/>
      <point x="620" y="508" type="curve" smooth="yes"/>
      <point x="620" y="611"/>
      <point x="537" y="680"/>
      <point x="410" y="680" type="curve" smooth="yes"/>
      <point x="135" y="680" type="line"/>
      <point x="135" y="590" type="line"/>
      <point x="395" y="590" type="line" smooth="yes"/>
      <point x="471" y="590"/>
      <point x="522" y="556"/>
      <point x="522" y="504" type="curve" smooth="yes"/>
      <point x="522" y="450"/>
      <point x="469" y="412"/>
      <point x="395" y="412" type="curve" smooth="yes"/>
      <point x="135" y="412" type="line"/>
      <point x="135" y="322" type="line"/>
      <point x="377" y="322" type="line" smooth="yes"/>
      <point x="476" y="322"/>
      <point x="534" y="278"/>
      <point x="534" y="203" type="curve" smooth="yes"/>
      <point x="534" y="133"/>
      <point x="474" y="90"/>
      <point x="377" y="90" type="curve" smooth="yes"/>
      <point x="135" y="90" type="line"/>
    </contour>
  </outline>
  <guideline angle="0" x="0" y="42"/>
  <guideline angle="0" x="0" y="654"/>
  <guideline angle="0" x="0" y="382"/>
  <guideline angle="0" x="0" y="360"/>
  <guideline angle="0" x="0" y="127"/>
  <guideline angle="0" x="0" y="536"/>
  <guideline angle="90" x="323" y="0"/>
</glyph>
<glyph name="D" format="2">
  <advance width="691"/>
  <unicode hex="0044"/>
  <anchor x="301" y="740" name="top"/>
  <anchor x="301" y="-40" name="bottom"/>
  <anchor x="272" y="0" name="b.cedilla"/>
  <outline>
    <contour>
      <point x="59" y="0" type="line"/>
      <point x="158" y="0" type="line"/>
      <point x="158" y="680" type="line"/>
      <point x="59" y="680" type="line"/>
    </contour>
    <contour>
      <point x="83" y="0" type="line"/>
      <point x="302" y="0" type="line" smooth="yes"/>
      <point x="532" y="0"/>
      <point x="643" y="139"/>
      <point x="643" y="340" type="curve" smooth="yes"/>
      <point x="643" y="538"/>
      <point x="531" y="680"/>
      <point x="302" y="680" type="curve" smooth="yes"/>
      <point x="83" y="680" type="line"/>
      <point x="83" y="590" type="line"/>
      <point x="302" y="590" type="line" smooth="yes"/>
      <point x="486" y="590"/>
      <point x="544" y="483"/>
      <point x="544" y="340" type="curve" smooth="yes"/>
      <point x="544" y="233"/>
      <point x="483" y="90"/>
      <point x="302" y="90" type="curve" smooth="yes"/>
      <point x="83" y="90" type="line"/>
    </contour>
  </outline>
  <guideline angle="90" name="h_1" x="301" y="0"/>
</glyph>
<glyph name="E" format="2">
  <advance width="611"/>
  <unicode hex="0045"/>
  <anchor x="315" y="740" name="top"/>
  <anchor x="315" y="-40" name="bottom"/>
  <anchor x="315" y="0" name="b.cedilla"/>
  <outline>
    <contour>
      <point x="59" y="0" type="line"/>
      <point x="158" y="0" type="line"/>
      <point x="158" y="680" type="line"/>
      <point x="59" y="680" type="line"/>
    </contour>
    <contour>
      <point x="138" y="302" type="line"/>
      <point x="498" y="302" type="line"/>
      <point x="498" y="392" type="line"/>
      <point x="138" y="392" type="line"/>
    </contour>
    <contour>
      <point x="137" y="590" type="line"/>
      <point x="547" y="590" type="line"/>
      <point x="547" y="680" type="line"/>
      <point x="137" y="680" type="line"/>
    </contour>
    <contour>
      <point x="137" y="0" type="line"/>
      <point x="547" y="0" type="line"/>
      <point x="547" y="90" type="line"/>
      <point x="137" y="90" type="line"/>
    </contour>
  </outline>
  <guideline angle="90" name="h_1" x="315" y="0"/>
</glyph>
<glyph name="F" format="2">
  <advance width="611"/>
  <unicode hex="0046"/>
  <anchor x="315" y="740" name="top"/>
  <anchor x="315" y="-40" name="bottom"/>
  <outline>
    <contour>
      <point x="59" y="0" type="line"/>
      <point x="158" y="0" type="line"/>
      <point x="158" y="680" type="line"/>
      <point x="59" y="680" type="line"/>
    </contour>
    <contour>
      <point x="117" y="590" type="line"/>
      <point x="547" y="590" type="line"/>
      <point x="547" y="680" type="line"/>
      <point x="117" y="680" type="line"/>
    </contour>
    <contour>
      <point x="117" y="302" type="line"/>
      <point x="497" y="302" type="line"/>
      <point x="497" y="392" type="line"/>
      <point x="117" y="392" type="line"/>
    </contour>
  </outline>
  <guideline angle="90" name="h_1" x="315" y="0"/>
</glyph>
<glyph name="G" format="2">
  <advance width="770"/>
  <unicode hex="0047"/>
  <anchor x="373" y="740" name="top"/>
  <anchor x="373" y="-40" name="bottom"/>
  <outline>
    <contour>
      <point x="48" y="340" type="curve" smooth="yes"/>
      <point x="48" y="119"/>
      <point x="189" y="-12"/>
      <point x="389" y="-12" type="curve" smooth="yes"/>
      <point x="454" y="-12"/>
      <point x="557" y="18"/>
      <point x="612" y="58" type="curve"/>
      <point x="617" y="-1" type="line"/>
      <point x="699" y="-1" type="line"/>
      <point x="699" y="314" type="line"/>
      <point x="401" y="314" type="line"/>
      <point x="401" y="238" type="line"/>
      <point x="606" y="238" type="line"/>
      <point x="606" y="200" type="line" smooth="yes"/>
      <point x="606" y="132"/>
      <point x="503" y="78"/>
      <point x="389" y="78" type="curve" smooth="yes"/>
      <point x="244" y="78"/>
      <point x="147" y="172"/>
      <point x="147" y="340" type="curve" smooth="yes"/>
      <point x="147" y="508"/>
      <point x="244" y="602"/>
      <point x="389" y="602" type="curve" smooth="yes"/>
      <point x="512" y="602"/>
      <point x="592" y="542"/>
      <point x="615" y="455" type="curve"/>
      <point x="708" y="455" type="line"/>
      <point x="672" y="597"/>
      <point x="555" y="692"/>
      <point x="389" y="692" type="curve" smooth="yes"/>
      <point x="189" y="692"/>
      <point x="48" y="561"/>
    </contour>
  </outline>
  <guideline angle="90" name="h_1" x="373" y="0"/>
</glyph>
<glyph name="H" format="2">
  <advance width="703"/>
  <unicode hex="0048"/>
  <anchor x="352" y="740" name="top"/>
  <anchor x="352" y="-40" name="bottom"/>
  <anchor x="562" y="0" name="b.cedilla"/>
  <outline>
    <contour>
      <point x="59" y="0" type="line"/>
      <point x="158" y="0" type="line"/>
      <point x="158" y="680" type="line"/>
      <point x="59" y="680" type="line"/>
    </contour>
    <contour>
      <point x="110" y="283" type="line"/>
      <point x="572" y="283" type="line"/>
      <point x="572" y="373" type="line"/>
      <point x="110" y="373" type="line"/>
    </contour>
    <contour>
      <point x="545" y="0" type="line"/>
      <point x="644" y="0" type="line"/>
      <point x="644" y="680" type="line"/>
      <point x="545" y="680" type="line"/>
    </contour>
  </outline>
  <guideline angle="90" name="h_1" x="352" y="0"/>
</glyph>
<glyph name="I" format="2">
  <advance width="217"/>
  <unicode hex="0049"/>
  <anchor x="109" y="740" name="top"/>
  <anchor x="109" y="-40" name="bottom"/>
  <outline>
    <contour>
      <point x="59" y="0" type="line"/>
      <point x="158" y="0" type="line"/>
      <point x="158" y="680" type="line"/>
      <point x="59" y="680" type="line"/>
    </contour>
  </outline>
  <guideline angle="90" x="109" y="0"/>
</glyph>
<glyph name="J" format="2">
  <advance width="343"/>
  <unicode hex="004A"/>
  <anchor x="234" y="740" name="top"/>
  <outline>
    <contour>
      <point x="62" y="0" type="line"/>
      <point x="86" y="0" type="line" smooth="yes"/>
      <point x="236" y="0"/>
      <point x="284" y="75"/>
      <point x="284" y="182" type="curve" smooth="yes"/>
      <point x="284" y="680" type="line"/>
      <point x="185" y="680" type="line"/>
      <point x="185" y="178" type="line" smooth="yes"/>
      <point x="185" y="114"/>
      <point x="139" y="98"/>
      <point x="81" y="98" type="curve" smooth="yes"/>
      <point x="62" y="98" type="line"/>
    </contour>
  </outline>
</glyph>
<glyph name="K" format="2">
  <advance width="679"/>
  <unicode hex="004B"/>
  <anchor x="352" y="-40" name="bottom"/>
  <anchor x="299" y="740" name="top"/>
  <outline>
    <contour>
      <point x="59" y="0" type="line"/>
      <point x="158" y="0" type="line"/>
      <point x="158" y="680" type="line"/>
      <point x="59" y="680" type="line"/>
    </contour>
    <contour>
      <point x="135" y="144" type="line"/>
      <point x="620" y="680" type="line"/>
      <point x="490" y="680" type="line"/>
      <point x="135" y="286" type="line"/>
    </contour>
    <contour>
      <point x="315" y="363" type="line"/>
      <point x="539" y="0" type="line"/>
      <point x="669" y="0" type="line"/>
      <point x="393" y="449" type="line"/>
    </contour>
  </outline>
  <guideline angle="0" x="0" y="350"/>
  <guideline angle="300.451" x="412" y="421"/>
  <guideline angle="120.937" x="522" y="0"/>
  <guideline angle="48.6683" x="290" y="319"/>
  <guideline angle="90" name="h_1" x="299" y="0"/>
</glyph>
<glyph name="L" format="2">
  <advance width="601"/>
  <unicode hex="004C"/>
  <anchor x="310" y="740" name="top"/>
  <anchor x="310" y="-40" name="bottom"/>
  <outline>
    <contour>
      <point x="118" y="0" type="line"/>
      <point x="542" y="0" type="line"/>
      <point x="542" y="90" type="line"/>
      <point x="118" y="90" type="line"/>
    </contour>
    <contour>
      <point x="59" y="0" type="line"/>
      <point x="158" y="0" type="line"/>
      <point x="158" y="680" type="line"/>
      <point x="59" y="680" type="line"/>
    </contour>
  </outline>
  <guideline angle="90" name="h_1" x="310" y="0"/>
</glyph>
<glyph name="M" format="2">
  <advance width="925"/>
  <unicode hex="004D"/>
  <anchor x="453" y="740" name="top"/>
  <anchor x="453" y="-40" name="bottom"/>
  <outline>
    <contour>
      <point x="59" y="0" type="line"/>
      <point x="158" y="0" type="line"/>
      <point x="158" y="680" type="line"/>
      <point x="59" y="680" type="line"/>
    </contour>
    <contour>
      <point x="71" y="680" type="line"/>
      <point x="406" y="0" type="line"/>
      <point x="481" y="0" type="line"/>
      <point x="481" y="31"/>
      <point x="417" y="190"/>
      <point x="390" y="243" type="curve" smooth="yes"/>
      <point x="172" y="680" type="line"/>
    </contour>
    <contour>
      <point x="441" y="0" type="curve"/>
      <point x="516" y="0" type="line"/>
      <point x="851" y="680" type="line"/>
      <point x="751" y="680" type="line"/>
      <point x="532" y="243" type="line" smooth="yes"/>
      <point x="506" y="190"/>
      <point x="441" y="31"/>
    </contour>
    <contour>
      <point x="767" y="0" type="line"/>
      <point x="866" y="0" type="line"/>
      <point x="866" y="680" type="line"/>
      <point x="767" y="680" type="line"/>
    </contour>
  </outline>
  <guideline angle="90" name="h_1" x="453" y="0"/>
  <guideline angle="0" x="0" y="230"/>
  <guideline angle="90" x="734" y="0"/>
</glyph>
<glyph name="N" format="2">
  <advance width="774"/>
  <unicode hex="004E"/>
  <anchor x="383" y="740" name="top"/>
  <anchor x="383" y="-40" name="bottom"/>
  <outline>
    <contour>
      <point x="59" y="0" type="line"/>
      <point x="158" y="0" type="line"/>
      <point x="158" y="443" type="line" smooth="yes"/>
      <point x="158" y="464"/>
      <point x="158" y="493"/>
      <point x="153" y="523" type="curve"/>
      <point x="170" y="523" type="line"/>
      <point x="611" y="0" type="line"/>
      <point x="715" y="0" type="line"/>
      <point x="715" y="680" type="line"/>
      <point x="616" y="680" type="line"/>
      <point x="616" y="237" type="line" smooth="yes"/>
      <point x="616" y="216"/>
      <point x="616" y="187"/>
      <point x="621" y="157" type="curve"/>
      <point x="604" y="157" type="line"/>
      <point x="163" y="680" type="line"/>
      <point x="59" y="680" type="line"/>
    </contour>
  </outline>
  <guideline angle="90" x="383" y="0"/>
</glyph>
<glyph name="O" format="2">
  <advance width="776"/>
  <unicode hex="004F"/>
  <anchor x="391" y="740" name="top"/>
  <anchor x="388" y="-40" name="bottom"/>
  <anchor x="388" y="0" name="b.ogonek"/>
  <outline>
    <contour>
      <point x="48" y="340" type="curve" smooth="yes"/>
      <point x="48" y="119"/>
      <point x="188" y="-12"/>
      <point x="388" y="-12" type="curve" smooth="yes"/>
      <point x="588" y="-12"/>
      <point x="728" y="119"/>
      <point x="728" y="340" type="curve" smooth="yes"/>
      <point x="728" y="561"/>
      <point x="588" y="692"/>
      <point x="388" y="692" type="curve" smooth="yes"/>
      <point x="188" y="692"/>
      <point x="48" y="561"/>
    </contour>
    <contour>
      <point x="147" y="340" type="curve" smooth="yes"/>
      <point x="147" y="508"/>
      <point x="243" y="602"/>
      <point x="388" y="602" type="curve" smooth="yes"/>
      <point x="533" y="602"/>
      <point x="629" y="508"/>
      <point x="629" y="340" type="curve" smooth="yes"/>
      <point x="629" y="172"/>
      <point x="533" y="78"/>
      <point x="388" y="78" type="curve" smooth="yes"/>
      <point x="243" y="78"/>
      <point x="147" y="172"/>
    </contour>
  </outline>
  <guideline angle="0" x="0" y="740"/>
  <guideline angle="90" x="388" y="0"/>
</glyph>
<glyph name="P" format="2">
  <advance width="698"/>
  <unicode hex="0050"/>
  <anchor x="325" y="740" name="top"/>
  <anchor x="325" y="-40" name="bottom"/>
  <outline>
    <contour>
      <point x="59" y="0" type="line"/>
      <point x="158" y="0" type="line"/>
      <point x="158" y="680" type="line"/>
      <point x="59" y="680" type="line"/>
    </contour>
    <contour>
      <point x="127" y="273" type="line"/>
      <point x="356" y="273" type="line" smooth="yes"/>
      <point x="517" y="273"/>
      <point x="622" y="355"/>
      <point x="622" y="483" type="curve" smooth="yes"/>
      <point x="622" y="621"/>
      <point x="542" y="680"/>
      <point x="356" y="680" type="curve" smooth="yes"/>
      <point x="127" y="680" type="line"/>
      <point x="127" y="590" type="line"/>
      <point x="356" y="590" type="line" smooth="yes"/>
      <point x="471" y="590"/>
      <point x="527" y="550"/>
      <point x="527" y="483" type="curve" smooth="yes"/>
      <point x="527" y="403"/>
      <point x="479" y="362"/>
      <point x="356" y="362" type="curve" smooth="yes"/>
      <point x="127" y="362" type="line"/>
    </contour>
  </outline>
  <guideline angle="90" name="h_1" x="325" y="0"/>
</glyph>
<glyph name="Q" format="2">
  <advance width="778"/>
  <unicode hex="0051"/>
  <anchor x="403" y="740" name="top"/>
  <outline>
    <contour>
      <point x="48" y="340" type="curve" smooth="yes"/>
      <point x="48" y="119"/>
      <point x="188" y="-12"/>
      <point x="388" y="-12" type="curve" smooth="yes"/>
      <point x="588" y="-12"/>
      <point x="728" y="119"/>
      <point x="728" y="340" type="curve" smooth="yes"/>
      <point x="728" y="561"/>
      <point x="588" y="692"/>
      <point x="388" y="692" type="curve" smooth="yes"/>
      <point x="188" y="692"/>
      <point x="48" y="561"/>
    </contour>
    <contour>
      <point x="147" y="340" type="curve" smooth="yes"/>
      <point x="147" y="508"/>
      <point x="243" y="602"/>
      <point x="388" y="602" type="curve" smooth="yes"/>
      <point x="533" y="602"/>
      <point x="629" y="508"/>
      <point x="629" y="340" type="curve" smooth="yes"/>
      <point x="629" y="172"/>
      <point x="533" y="78"/>
      <point x="388" y="78" type="curve" smooth="yes"/>
      <point x="243" y="78"/>
      <point x="147" y="172"/>
    </contour>
    <contour>
      <point x="537" y="25" type="line"/>
      <point x="654" y="-68" type="line"/>
      <point x="730" y="-7" type="line"/>
      <point x="625" y="77" type="line"/>
    </contour>
    <contour>
      <point x="440" y="104" type="line"/>
      <point x="480" y="72" type="line"/>
      <point x="570" y="122" type="line"/>
      <point x="517" y="165" type="line"/>
    </contour>
  </outline>
  <guideline angle="90" x="427" y="0"/>
</glyph>
<glyph name="R" format="2">
  <advance width="702"/>
  <unicode hex="0052"/>
  <anchor x="325" y="740" name="top"/>
  <anchor x="325" y="-40" name="bottom"/>
  <outline>
    <contour>
      <point x="312" y="309" type="line"/>
      <point x="502" y="0" type="line"/>
      <point x="626" y="0" type="line"/>
      <point x="430" y="309" type="line"/>
    </contour>
    <contour>
      <point x="59" y="0" type="line"/>
      <point x="158" y="0" type="line"/>
      <point x="158" y="680" type="line"/>
      <point x="59" y="680" type="line"/>
    </contour>
    <contour>
      <point x="110" y="273" type="line"/>
      <point x="356" y="273" type="line" smooth="yes"/>
      <point x="517" y="273"/>
      <point x="622" y="355"/>
      <point x="622" y="483" type="curve" smooth="yes"/>
      <point x="622" y="621"/>
      <point x="542" y="680"/>
      <point x="356" y="680" type="curve" smooth="yes"/>
      <point x="110" y="680" type="line"/>
      <point x="110" y="590" type="line"/>
      <point x="356" y="590" type="line" smooth="yes"/>
      <point x="471" y="590"/>
      <point x="527" y="550"/>
      <point x="527" y="483" type="curve" smooth="yes"/>
      <point x="527" y="403"/>
      <point x="479" y="362"/>
      <point x="356" y="362" type="curve" smooth="yes"/>
      <point x="110" y="362" type="line"/>
    </contour>
  </outline>
  <guideline angle="90" name="h_1" x="325" y="0"/>
</glyph>
<glyph name="S" format="2">
  <advance width="675"/>
  <unicode hex="0053"/>
  <anchor x="328" y="740" name="top"/>
  <anchor x="328" y="-40" name="bottom"/>
  <anchor x="328" y="0" name="b.cedilla"/>
  <outline>
    <contour>
      <point x="48" y="197" type="line"/>
      <point x="48" y="64"/>
      <point x="152" y="-11"/>
      <point x="328" y="-11" type="curve" smooth="yes"/>
      <point x="499" y="-11"/>
      <point x="627" y="47"/>
      <point x="627" y="191" type="curve" smooth="yes"/>
      <point x="627" y="289"/>
      <point x="561" y="335"/>
      <point x="424" y="377" type="curve" smooth="yes"/>
      <point x="311" y="412" type="line" smooth="yes"/>
      <point x="212" y="443"/>
      <point x="172" y="469"/>
      <point x="172" y="514" type="curve" smooth="yes"/>
      <point x="172" y="570"/>
      <point x="214" y="601"/>
      <point x="336" y="601" type="curve" smooth="yes"/>
      <point x="441" y="601"/>
      <point x="524" y="559"/>
      <point x="524" y="499" type="curve"/>
      <point x="624" y="499" type="line"/>
      <point x="624" y="608"/>
      <point x="518" y="691"/>
      <point x="347" y="691" type="curve" smooth="yes"/>
      <point x="157" y="691"/>
      <point x="71" y="620"/>
      <point x="71" y="519" type="curve" smooth="yes"/>
      <point x="71" y="422"/>
      <point x="128" y="378"/>
      <point x="276" y="333" type="curve" smooth="yes"/>
      <point x="391" y="298" type="line" smooth="yes"/>
      <point x="492" y="267"/>
      <point x="526" y="238"/>
      <point x="526" y="191" type="curve" smooth="yes"/>
      <point x="526" y="123"/>
      <point x="463" y="79"/>
      <point x="337" y="79" type="curve" smooth="yes"/>
      <point x="238" y="79"/>
      <point x="148" y="112"/>
      <point x="148" y="197" type="curve"/>
    </contour>
  </outline>
  <guideline angle="90" name="h_1" x="328" y="0"/>
</glyph>
<glyph name="U" format="2">
  <advance width="658"/>
  <unicode hex="0055"/>
  <anchor x="329" y="740" name="top"/>
  <anchor x="329" y="-40" name="bottom"/>
  <outline>
    <contour>
      <point x="49" y="235" type="line" smooth="yes"/>
      <point x="49" y="86"/>
      <point x="127" y="-11"/>
      <point x="329" y="-11" type="curve" smooth="yes"/>
      <point x="532" y="-11"/>
      <point x="609" y="86"/>
      <point x="609" y="235" type="curve" smooth="yes"/>
      <point x="609" y="680" type="line"/>
      <point x="510" y="680" type="line"/>
      <point x="510" y="275" type="line" smooth="yes"/>
      <point x="510" y="123"/>
      <point x="448" y="89"/>
      <point x="329" y="89" type="curve" smooth="yes"/>
      <point x="210" y="89"/>
      <point x="148" y="123"/>
      <point x="148" y="275" type="curve" smooth="yes"/>
      <point x="148" y="680" type="line"/>
      <point x="49" y="680" type="line"/>
    </contour>
  </outline>
  <guideline angle="90" name="h_1" x="329" y="0"/>
</glyph>
<glyph name="V" format="2">
  <advance width="650"/>
  <unicode hex="0056"/>
  <anchor x="317" y="-40" name="bottom"/>
  <anchor x="317" y="740" name="top"/>
  <outline>
    <contour>
      <point x="10" y="680" type="line"/>
      <point x="270" y="0" type="line"/>
      <point x="343" y="0" type="line"/>
      <point x="343" y="31"/>
      <point x="300" y="189"/>
      <point x="279" y="243" type="curve" smooth="yes"/>
      <point x="111" y="680" type="line"/>
    </contour>
    <contour>
      <point x="309" y="0" type="curve"/>
      <point x="380" y="0" type="line"/>
      <point x="640" y="680" type="line"/>
      <point x="540" y="680" type="line"/>
      <point x="371" y="243" type="line" smooth="yes"/>
      <point x="351" y="188"/>
      <point x="309" y="31"/>
    </contour>
  </outline>
  <guideline angle="90" name="h_1" x="317" y="0"/>
  <guideline angle="0" x="0" y="230"/>
</glyph>
<glyph name="W" format="2">
  <advance width="1181"/>
  <unicode hex="0057"/>
  <anchor x="590" y="740" name="top"/>
  <anchor x="590" y="-40" name="bottom"/>
  <outline>
    <contour>
      <point x="10" y="680" type="line"/>
      <point x="270" y="0" type="line"/>
      <point x="343" y="0" type="line"/>
      <point x="343" y="31"/>
      <point x="300" y="189"/>
      <point x="279" y="243" type="curve" smooth="yes"/>
      <point x="111" y="680" type="line"/>
    </contour>
    <contour>
      <point x="309" y="0" type="curve"/>
      <point x="380" y="0" type="line"/>
      <point x="640" y="680" type="line"/>
      <point x="540" y="680" type="line"/>
      <point x="371" y="243" type="line" smooth="yes"/>
      <point x="351" y="188"/>
      <point x="309" y="31"/>
    </contour>
    <contour>
      <point x="541" y="680" type="line"/>
      <point x="801" y="0" type="line"/>
      <point x="874" y="0" type="line"/>
      <point x="874" y="31"/>
      <point x="831" y="189"/>
      <point x="810" y="243" type="curve" smooth="yes"/>
      <point x="642" y="680" type="line"/>
    </contour>
    <contour>
      <point x="840" y="0" type="curve"/>
      <point x="911" y="0" type="line"/>
      <point x="1171" y="680" type="line"/>
      <point x="1071" y="680" type="line"/>
      <point x="902" y="243" type="line" smooth="yes"/>
      <point x="882" y="188"/>
      <point x="840" y="31"/>
    </contour>
  </outline>
  <guideline angle="90" name="h_1" x="590" y="0"/>
</glyph>
<glyph name="X" format="2">
  <advance width="686"/>
  <unicode hex="0058"/>
  <anchor x="345" y="740" name="top"/>
  <anchor x="345" y="-40" name="bottom"/>
  <outline>
    <contour>
      <point x="284" y="336" type="line"/>
      <point x="350" y="265" type="line"/>
      <point x="535" y="0" type="line"/>
      <point x="667" y="0" type="line"/>
      <point x="402" y="372" type="line"/>
      <point x="338" y="440" type="line"/>
      <point x="168" y="680" type="line"/>
      <point x="38" y="680" type="line"/>
    </contour>
    <contour>
      <point x="19" y="0" type="line"/>
      <point x="152" y="0" type="line"/>
      <point x="348" y="288" type="line"/>
      <point x="284" y="360" type="line"/>
    </contour>
    <contour>
      <point x="335" y="424" type="line"/>
      <point x="399" y="350" type="line"/>
      <point x="648" y="680" type="line"/>
      <point x="522" y="680" type="line"/>
    </contour>
  </outline>
  <guideline angle="126.258" x="665" y="0"/>
  <guideline angle="53.7114" x="508" y="680"/>
  <guideline angle="90" name="h_1" x="345" y="0"/>
</glyph>
<glyph name="Y" format="2">
  <advance width="716"/>
  <unicode hex="0059"/>
  <anchor x="358" y="740" name="top"/>
  <anchor x="358" y="-40" name="bottom"/>
  <outline>
    <contour>
      <point x="307" y="0" type="line"/>
      <point x="407" y="0" type="line"/>
      <point x="407" y="272" type="line"/>
      <point x="672" y="680" type="line"/>
      <point x="554" y="680" type="line"/>
      <point x="345" y="353" type="line"/>
      <point x="370" y="353" type="line"/>
      <point x="162" y="680" type="line"/>
      <point x="42" y="680" type="line"/>
      <point x="307" y="272" type="line"/>
    </contour>
  </outline>
  <guideline angle="90" x="358" y="0"/>
  <guideline angle="0" x="0" y="680"/>
  <guideline angle="237.426" x="554" y="680"/>
  <guideline angle="122.433" x="345" y="392"/>
  <guideline angle="0" x="0" y="353"/>
</glyph>
<glyph name="bracketleft" format="2">
  <advance width="372"/>
  <unicode hex="005B"/>
  <outline>
    <contour>
      <point x="70" y="-81" type="line"/>
      <point x="302" y="-81" type="line"/>
      <point x="302" y="-9" type="line"/>
      <point x="162" y="-9" type="line"/>
      <point x="162" y="708" type="line"/>
      <point x="302" y="708" type="line"/>
      <point x="302" y="780" type="line"/>
      <point x="70" y="780" type="line"/>
    </contour>
  </outline>
</glyph>
<glyph name="backslash" format="2">
  <advance width="571"/>
  <unicode hex="005C"/>
  <outline>
    <contour>
      <point x="30" y="700" type="line"/>
      <point x="437" y="0" type="line"/>
      <point x="541" y="0" type="line"/>
      <point x="130" y="700" type="line"/>
    </contour>
  </outline>
</glyph>
<glyph name="b" format="2">
  <advance width="607"/>
  <unicode hex="0062"/>
  <anchor x="320" y="740" name="top"/>
  <anchor x="320" y="-40" name="bottom"/>
  <outline>
    <contour>
      <point x="66" y="0" type="line"/>
      <point x="142" y="0" type="line"/>
      <point x="154" y="58" type="line"/>
      <point x="154" y="400" type="line"/>
      <point x="157" y="407"/>
      <point x="158" y="413"/>
      <point x="158" y="420" type="curve" smooth="yes"/>
      <point x="158" y="700" type="line"/>
      <point x="66" y="700" type="line"/>
    </contour>
    <contour>
      <point x="134" y="58" type="line"/>
      <point x="157" y="58" type="line"/>
      <point x="193" y="21"/>
      <point x="254" y="-12"/>
      <point x="320" y="-12" type="curve" smooth="yes"/>
      <point x="524" y="-12"/>
      <point x="567" y="144"/>
      <point x="567" y="230" type="curve" smooth="yes"/>
      <point x="567" y="355"/>
      <point x="476" y="472"/>
      <point x="320" y="472" type="curve" smooth="yes"/>
      <point x="256" y="472"/>
      <point x="190" y="443"/>
      <point x="157" y="400" type="curve"/>
      <point x="134" y="400" type="line"/>
    </contour>
    <contour>
      <point x="154" y="224" type="curve" smooth="yes"/>
      <point x="154" y="234" type="line" smooth="yes"/>
      <point x="154" y="344"/>
      <point x="226" y="398"/>
      <point x="310" y="398" type="curve" smooth="yes"/>
      <point x="426" y="398"/>
      <point x="475" y="332"/>
      <point x="475" y="231" type="curve" smooth="yes"/>
      <point x="475" y="163"/>
      <point x="442" y="64"/>
      <point x="310" y="64" type="curve" smooth="yes"/>
      <point x="235" y="64"/>
      <point x="154" y="114"/>
    </contour>
  </outline>
  <guideline angle="90" name="h_1" x="320" y="0"/>
</glyph>
<glyph name="f" format="2">
  <advance width="411"/>
  <unicode hex="0066"/>
  <anchor x="240" y="-40" name="bottom"/>
  <anchor x="229" y="740" name="top"/>
  <outline>
    <contour>
      <point x="137" y="0" type="line"/>
      <point x="229" y="0" type="line"/>
      <point x="229" y="500" type="line" smooth="yes"/>
      <point x="229" y="599"/>
      <point x="247" y="628"/>
      <point x="343" y="628" type="curve" smooth="yes"/>
      <point x="374" y="628" type="line"/>
      <point x="374" y="700" type="line"/>
      <point x="343" y="700" type="line"/>
      <point x="164" y="693"/>
      <point x="137" y="642"/>
      <point x="137" y="500" type="curve" smooth="yes"/>
    </contour>
    <contour>
      <point x="43" y="393" type="line"/>
      <point x="334" y="393" type="line"/>
      <point x="334" y="460" type="line"/>
      <point x="43" y="460" type="line"/>
    </contour>
  </outline>
  <guideline angle="90" name="h_1" x="229" y="0"/>
</glyph>
<glyph name="g" format="2">
  <advance width="608"/>
  <unicode hex="0067"/>
  <anchor x="290" y="530" name="top"/>
  <outline>
    <contour>
      <point x="58" y="-51" type="line"/>
      <point x="72" y="-110"/>
      <point x="140" y="-200"/>
      <point x="292" y="-200" type="curve" smooth="yes"/>
      <point x="433" y="-200"/>
      <point x="542" y="-146"/>
      <point x="542" y="27" type="curve" smooth="yes"/>
      <point x="542" y="30" type="line"/>
      <point x="450" y="30" type="line"/>
      <point x="450" y="23" type="line" smooth="yes"/>
      <point x="450" y="-88"/>
      <point x="387" y="-128"/>
      <point x="295" y="-128" type="curve" smooth="yes"/>
      <point x="243" y="-128"/>
      <point x="176" y="-107"/>
      <point x="153" y="-51" type="curve"/>
    </contour>
    <contour>
      <point x="40" y="230" type="curve" smooth="yes"/>
      <point x="40" y="144"/>
      <point x="83" y="0"/>
      <point x="287" y="0" type="curve" smooth="yes"/>
      <point x="353" y="0"/>
      <point x="414" y="21"/>
      <point x="450" y="58" type="curve"/>
      <point x="463" y="58" type="line"/>
      <point x="463" y="400" type="line"/>
      <point x="450" y="400" type="line"/>
      <point x="417" y="443"/>
      <point x="351" y="472"/>
      <point x="287" y="472" type="curve" smooth="yes"/>
      <point x="131" y="472"/>
      <point x="40" y="355"/>
    </contour>
    <contour>
      <point x="132" y="231" type="curve" smooth="yes"/>
      <point x="132" y="332"/>
      <point x="181" y="398"/>
      <point x="297" y="398" type="curve" smooth="yes"/>
      <point x="381" y="398"/>
      <point x="453" y="344"/>
      <point x="453" y="234" type="curve" smooth="yes"/>
      <point x="453" y="224" type="line" smooth="yes"/>
      <point x="453" y="114"/>
      <point x="372" y="76"/>
      <point x="297" y="76" type="curve" smooth="yes"/>
      <point x="165" y="76"/>
      <point x="132" y="163"/>
    </contour>
    <contour>
      <point x="450" y="0" type="line"/>
      <point x="542" y="0" type="line"/>
      <point x="542" y="460" type="line"/>
      <point x="475" y="460" type="line"/>
      <point x="453" y="400" type="line"/>
      <point x="453" y="58" type="line"/>
      <point x="450" y="39" type="line"/>
    </contour>
  </outline>
  <guideline angle="90" name="h_1" x="290" y="0"/>
</glyph>
<glyph name="o" format="2">
  <advance width="592"/>
  <unicode hex="006F"/>
  <anchor x="307" y="530" name="top"/>
  <anchor x="317" y="-40" name="bottom"/>
  <anchor x="381" y="0" name="b.ogonek"/>
  <outline>
    <contour>
      <point x="40" y="230" type="curve" smooth="yes"/>
      <point x="40" y="85"/>
      <point x="143" y="-12"/>
      <point x="296" y="-12" type="curve" smooth="yes"/>
      <point x="446" y="-12"/>
      <point x="552" y="87"/>
      <point x="552" y="230" type="curve" smooth="yes"/>
      <point x="552" y="375"/>
      <point x="449" y="472"/>
      <point x="296" y="472" type="curve" smooth="yes"/>
      <point x="143" y="472"/>
      <point x="40" y="375"/>
    </contour>
    <contour>
      <point x="132" y="230" type="curve" smooth="yes"/>
      <point x="132" y="332"/>
      <point x="195" y="396"/>
      <point x="296" y="396" type="curve" smooth="yes"/>
      <point x="394" y="396"/>
      <point x="460" y="329"/>
      <point x="460" y="230" type="curve" smooth="yes"/>
      <point x="460" y="128"/>
      <point x="397" y="64"/>
      <point x="296" y="64" type="curve" smooth="yes"/>
      <point x="198" y="64"/>
      <point x="132" y="131"/>
    </contour>
  </outline>
</glyph>
<glyph name="p" format="2">
  <advance width="607"/>
  <unicode hex="0070"/>
  <anchor x="281" y="-40" name="bottom"/>
  <anchor x="281" y="530" name="top"/>
  <outline>
    <contour>
      <point x="66" y="-200" type="line"/>
      <point x="159" y="-200" type="line"/>
      <point x="159" y="39" type="line"/>
      <point x="155" y="58" type="line"/>
      <point x="155" y="401" type="line"/>
      <point x="131" y="459" type="line"/>
      <point x="66" y="459" type="line"/>
    </contour>
    <contour>
      <point x="134" y="58" type="line"/>
      <point x="157" y="58" type="line"/>
      <point x="193" y="21"/>
      <point x="254" y="-12"/>
      <point x="320" y="-12" type="curve" smooth="yes"/>
      <point x="524" y="-12"/>
      <point x="567" y="144"/>
      <point x="567" y="230" type="curve" smooth="yes"/>
      <point x="567" y="355"/>
      <point x="476" y="472"/>
      <point x="320" y="472" type="curve" smooth="yes"/>
      <point x="256" y="472"/>
      <point x="190" y="443"/>
      <point x="157" y="400" type="curve"/>
      <point x="134" y="400" type="line"/>
    </contour>
    <contour>
      <point x="154" y="224" type="curve" smooth="yes"/>
      <point x="154" y="234" type="line" smooth="yes"/>
      <point x="154" y="344"/>
      <point x="226" y="398"/>
      <point x="310" y="398" type="curve" smooth="yes"/>
      <point x="426" y="398"/>
      <point x="475" y="332"/>
      <point x="475" y="231" type="curve" smooth="yes"/>
      <point x="475" y="163"/>
      <point x="442" y="64"/>
      <point x="310" y="64" type="curve" smooth="yes"/>
      <point x="235" y="64"/>
      <point x="154" y="114"/>
    </contour>
  </outline>
  <guideline angle="90" name="h_1" x="281" y="0"/>
</glyph>
<glyph name="r" format="2">
  <advance width="459"/>
  <unicode hex="0072"/>
  <anchor x="219" y="-40" name="bottom"/>
  <anchor x="219" y="530" name="top"/>
  <outline>
    <contour>
      <point x="66" y="0" type="line"/>
      <point x="158" y="0" type="line"/>
      <point x="158" y="235" type="line" smooth="yes"/>
      <point x="158" y="319"/>
      <point x="220" y="383"/>
      <point x="301" y="383" type="curve" smooth="yes"/>
      <point x="354" y="383"/>
      <point x="394" y="370"/>
      <point x="415" y="354" type="curve"/>
      <point x="419" y="354" type="line"/>
      <point x="419" y="452" type="line"/>
      <point x="388" y="463"/>
      <point x="352" y="470"/>
      <point x="314" y="470" type="curve" smooth="yes"/>
      <point x="236" y="470"/>
      <point x="172" y="426"/>
      <point x="134" y="346" type="curve"/>
      <point x="156" y="346" type="line"/>
      <point x="143" y="460" type="line"/>
      <point x="66" y="460" type="line"/>
    </contour>
  </outline>
  <guideline angle="90" name="h_1" x="219" y="0"/>
</glyph>
<glyph name="t" format="2">
  <advance width="403"/>
  <unicode hex="0074"/>
  <anchor x="240" y="-40" name="bottom"/>
  <anchor x="185" y="660" name="top"/>
  <outline>
    <contour>
      <point x="37" y="393" type="line"/>
      <point x="328" y="393" type="line"/>
      <point x="328" y="460" type="line"/>
      <point x="131" y="460" type="line"/>
      <point x="37" y="442" type="line"/>
    </contour>
    <contour>
      <point x="131" y="180" type="line" smooth="yes"/>
      <point x="131" y="44"/>
      <point x="159" y="-9"/>
      <point x="337" y="-9" type="curve" smooth="yes"/>
      <point x="367" y="-9" type="line"/>
      <point x="367" y="63" type="line"/>
      <point x="336" y="63" type="line" smooth="yes"/>
      <point x="239" y="63"/>
      <point x="223" y="90"/>
      <point x="223" y="188" type="curve" smooth="yes"/>
      <point x="223" y="610" type="line"/>
      <point x="156" y="610" type="line"/>
      <point x="138" y="453" type="line"/>
      <point x="131" y="453" type="line"/>
    </contour>
  </outline>
  <guideline angle="90" name="h_1" x="153" y="0"/>
</glyph>
<glyph name="v" format="2">
  <advance width="554"/>
  <unicode hex="0076"/>
  <anchor x="277" y="530" name="top"/>
  <anchor x="277" y="-40" name="bottom"/>
  <outline>
    <contour>
      <point x="217" y="0" type="line"/>
      <point x="337" y="0" type="line"/>
      <point x="537" y="460" type="line"/>
      <point x="437" y="460" type="line"/>
      <point x="273" y="85" type="line"/>
      <point x="281" y="85" type="line"/>
      <point x="117" y="460" type="line"/>
      <point x="17" y="460" type="line"/>
    </contour>
  </outline>
  <guideline angle="90" name="h_1" x="277" y="0"/>
</glyph>
<glyph name="w" format="2">
  <advance width="772"/>
  <unicode hex="0077"/>
  <anchor x="386" y="-40" name="bottom"/>
  <anchor x="386" y="530" name="top"/>
  <outline>
    <contour>
      <point x="180" y="0" type="line"/>
      <point x="266" y="0" type="line"/>
      <point x="369" y="303" type="line" smooth="yes"/>
      <point x="376" y="325"/>
      <point x="383" y="354"/>
      <point x="386" y="376" type="curve"/>
      <point x="362" y="366" type="line"/>
      <point x="412" y="366" type="line"/>
      <point x="386" y="376" type="line"/>
      <point x="389" y="354"/>
      <point x="396" y="325"/>
      <point x="403" y="303" type="curve" smooth="yes"/>
      <point x="506" y="0" type="line"/>
      <point x="592" y="0" type="line"/>
      <point x="755" y="460" type="line"/>
      <point x="669" y="460" type="line"/>
      <point x="568" y="154" type="line" smooth="yes"/>
      <point x="560" y="131"/>
      <point x="554" y="104"/>
      <point x="549" y="81" type="curve"/>
      <point x="559" y="94" type="line"/>
      <point x="539" y="94" type="line"/>
      <point x="549" y="81" type="line"/>
      <point x="547" y="104"/>
      <point x="542" y="132"/>
      <point x="534" y="154" type="curve" smooth="yes"/>
      <point x="429" y="460" type="line"/>
      <point x="343" y="460" type="line"/>
      <point x="241" y="154" type="line" smooth="yes"/>
      <point x="233" y="131"/>
      <point x="227" y="105"/>
      <point x="223" y="81" type="curve"/>
      <point x="233" y="94" type="line"/>
      <point x="213" y="94" type="line"/>
      <point x="223" y="81" type="line"/>
      <point x="221" y="105"/>
      <point x="215" y="131"/>
      <point x="207" y="154" type="curve" smooth="yes"/>
      <point x="103" y="460" type="line"/>
      <point x="17" y="460" type="line"/>
    </contour>
  </outline>
  <guideline angle="90" name="h_1" x="386" y="0"/>
  <guideline angle="90" x="223" y="0"/>
  <guideline angle="90" x="549" y="0"/>
  <guideline angle="0" x="0" y="74"/>
  <guideline angle="0" x="0" y="386"/>
  <guideline angle="0" x="0" y="438"/>
</glyph>
<glyph name="x" format="2">
  <advance width="513"/>
  <unicode hex="0078"/>
  <anchor x="256" y="-40" name="bottom"/>
  <anchor x="256" y="530" name="top"/>
  <outline>
    <contour>
      <point x="19" y="0" type="line"/>
      <point x="117" y="0" type="line"/>
      <point x="264" y="188" type="line"/>
      <point x="290" y="215" type="line"/>
      <point x="482" y="460" type="line"/>
      <point x="384" y="460" type="line"/>
      <point x="249" y="287" type="line"/>
      <point x="223" y="260" type="line"/>
    </contour>
    <contour>
      <point x="223" y="216" type="line"/>
      <point x="250" y="188" type="line"/>
      <point x="397" y="0" type="line"/>
      <point x="494" y="0" type="line"/>
      <point x="290" y="261" type="line"/>
      <point x="263" y="287" type="line"/>
      <point x="129" y="460" type="line"/>
      <point x="32" y="460" type="line"/>
    </contour>
  </outline>
  <guideline angle="0" x="0" y="280"/>
  <guideline angle="0" x="0" y="197"/>
  <guideline angle="90" name="h_1" x="256" y="0"/>
</glyph>
<glyph name="y" format="2">
  <advance width="529"/>
  <unicode hex="0079"/>
  <anchor x="267" y="530" name="top"/>
  <anchor x="410" y="-40" name="bottom"/>
  <outline>
    <contour>
      <point x="56" y="-192" type="line"/>
      <point x="89" y="-198"/>
      <point x="109" y="-200"/>
      <point x="137" y="-200" type="curve" smooth="yes"/>
      <point x="209" y="-200"/>
      <point x="250" y="-163"/>
      <point x="297" y="-49" type="curve" smooth="yes"/>
      <point x="512" y="460" type="line"/>
      <point x="425" y="460" type="line"/>
      <point x="217" y="-47" type="line"/>
      <point x="201" y="-96"/>
      <point x="164" y="-128"/>
      <point x="116" y="-128" type="curve" smooth="yes"/>
      <point x="86" y="-128"/>
      <point x="62" y="-127"/>
      <point x="56" y="-125" type="curve"/>
    </contour>
    <contour>
      <point x="17" y="460" type="line"/>
      <point x="232" y="-19" type="line"/>
      <point x="282" y="72" type="line"/>
      <point x="110" y="460" type="line"/>
    </contour>
  </outline>
  <guideline angle="90" x="267" y="0"/>
</glyph>
<glyph name="exclamdown" format="2">
  <advance width="190"/>
  <unicode hex="00A1"/>
  <outline>
    <contour>
      <point x="68" y="300" type="line"/>
      <point x="45" y="40" type="line"/>
      <point x="45" y="-240" type="line"/>
      <point x="145" y="-240" type="line"/>
      <point x="145" y="40" type="line"/>
      <point x="122" y="300" type="line"/>
    </contour>
    <contour>
      <point x="51" y="460" type="line"/>
      <point x="51" y="370" type="line"/>
      <point x="141" y="370" type="line"/>
      <point x="141" y="460" type="line"/>
    </contour>
  </outline>
</glyph>
<glyph name="sterling" format="2">
  <advance width="495"/>
  <unicode hex="00A3"/>
  <outline>
    <contour>
      <point x="13" y="0" type="line"/>
      <point x="451" y="0" type="line"/>
      <point x="451" y="75" type="line"/>
      <point x="137" y="75" type="line"/>
      <point x="135" y="77" type="line"/>
      <point x="176" y="123"/>
      <point x="208" y="185"/>
      <point x="208" y="251" type="curve" smooth="yes"/>
      <point x="208" y="272"/>
      <point x="205" y="287"/>
      <point x="198" y="307" type="curve" smooth="yes"/>
      <point x="187" y="339" type="line" smooth="yes"/>
      <point x="172" y="382"/>
      <point x="160" y="431"/>
      <point x="160" y="479" type="curve" smooth="yes"/>
      <point x="160" y="534"/>
      <point x="205" y="578"/>
      <point x="267" y="578" type="curve" smooth="yes"/>
      <point x="326" y="578"/>
      <point x="365" y="537"/>
      <point x="371" y="474" type="curve"/>
      <point x="461" y="474" type="line"/>
      <point x="452" y="590"/>
      <point x="378" y="654"/>
      <point x="265" y="654" type="curve" smooth="yes"/>
      <point x="148" y="654"/>
      <point x="66" y="577"/>
      <point x="66" y="468" type="curve" smooth="yes"/>
      <point x="66" y="421"/>
      <point x="82" y="380"/>
      <point x="95" y="337" type="curve" smooth="yes"/>
      <point x="103" y="310" type="line" smooth="yes"/>
      <point x="110" y="286"/>
      <point x="114" y="261"/>
      <point x="114" y="235" type="curve" smooth="yes"/>
      <point x="114" y="161"/>
      <point x="76" y="85"/>
      <point x="13" y="49" type="curve"/>
    </contour>
    <contour>
      <point x="151" y="287" type="line"/>
      <point x="314" y="287" type="line"/>
      <point x="314" y="358" type="line"/>
      <point x="151" y="358" type="line"/>
    </contour>
    <contour>
      <point x="21" y="287" type="line"/>
      <point x="131" y="287" type="line"/>
      <point x="131" y="358" type="line"/>
      <point x="21" y="358" type="line"/>
    </contour>
  </outline>
</glyph>
<glyph name="yen" format="2">
  <advance width="527"/>
  <unicode hex="00A5"/>
  <outline>
    <contour>
      <point x="44" y="142" type="line"/>
      <point x="213" y="142" type="line"/>
      <point x="213" y="0" type="line"/>
      <point x="314" y="0" type="line"/>
      <point x="314" y="142" type="line"/>
      <point x="482" y="142" type="line"/>
      <point x="482" y="207" type="line"/>
      <point x="314" y="207" type="line"/>
      <point x="314" y="281" type="line"/>
      <point x="482" y="281" type="line"/>
      <point x="482" y="346" type="line"/>
      <point x="349" y="346" type="line"/>
      <point x="517" y="637" type="line"/>
      <point x="414" y="637" type="line"/>
      <point x="297" y="421" type="line" smooth="yes"/>
      <point x="280" y="388"/>
      <point x="272" y="374"/>
      <point x="263" y="351" type="curve"/>
      <point x="254" y="374"/>
      <point x="243" y="394"/>
      <point x="230" y="417" type="curve" smooth="yes"/>
      <point x="106" y="637" type="line"/>
      <point x="10" y="637" type="line"/>
      <point x="177" y="346" type="line"/>
      <point x="44" y="346" type="line"/>
      <point x="44" y="281" type="line"/>
      <point x="213" y="281" type="line"/>
      <point x="213" y="207" type="line"/>
      <point x="44" y="207" type="line"/>
    </contour>
  </outline>
</glyph>
<glyph name="brokenbar" format="2">
  <advance width="210"/>
  <unicode hex="00A6"/>
  <outline>
    <contour>
      <point x="59" y="-156" type="line"/>
      <point x="151" y="-156" type="line"/>
      <point x="151" y="156" type="line"/>
      <point x="59" y="156" type="line"/>
    </contour>
    <contour>
      <point x="59" y="289" type="line"/>
      <point x="151" y="289" type="line"/>
      <point x="151" y="601" type="line"/>
      <point x="59" y="601" type="line"/>
    </contour>
  </outline>
</glyph>
<glyph name="onehalf" format="2">
  <advance width="762"/>
  <unicode hex="00BD"/>
  <outline>
    <contour>
      <point x="32" y="519" type="line"/>
      <point x="70" y="529"/>
      <point x="110" y="551"/>
      <point x="138" y="576" type="curve"/>
      <point x="119" y="608" type="line"/>
      <point x="119" y="355" type="line"/>
      <point x="209" y="355" type="line"/>
      <point x="209" y="681" type="line"/>
      <point x="145" y="681" type="line"/>
      <point x="120" y="650"/>
      <point x="69" y="609"/>
      <point x="32" y="600" type="curve"/>
    </contour>
    <contour>
      <point x="92" y="0" type="line"/>
      <point x="204" y="0" type="line"/>
      <point x="690" y="681" type="line"/>
      <point x="578" y="681" type="line"/>
    </contour>
    <contour>
      <point x="465" y="0" type="line"/>
      <point x="723" y="0" type="line"/>
      <point x="723" y="69" type="line"/>
      <point x="513" y="69" type="line"/>
      <point x="524" y="14" type="line"/>
      <point x="643" y="117" type="line"/>
      <point x="701" y="169"/>
      <point x="713" y="198"/>
      <point x="713" y="236" type="curve" smooth="yes"/>
      <point x="713" y="297"/>
      <point x="665" y="338"/>
      <point x="592" y="338" type="curve" smooth="yes"/>
      <point x="510" y="338"/>
      <point x="460" y="287"/>
      <point x="460" y="214" type="curve"/>
      <point x="544" y="214" type="line"/>
      <point x="544" y="246"/>
      <point x="559" y="263"/>
      <point x="588" y="263" type="curve" smooth="yes"/>
      <point x="609" y="263"/>
      <point x="628" y="249"/>
      <point x="628" y="227" type="curve" smooth="yes"/>
      <point x="628" y="207"/>
      <point x="608" y="189"/>
      <point x="573" y="158" type="curve" smooth="yes"/>
      <point x="465" y="64" type="line"/>
    </contour>
  </outline>
</glyph>
<glyph name="threequarters" format="2">
  <advance width="760"/>
  <unicode hex="00BE"/>
  <outline>
    <contour>
      <point x="21" y="454" type="line"/>
      <point x="29" y="392"/>
      <point x="71" y="343"/>
      <point x="161" y="343" type="curve" smooth="yes"/>
      <point x="224" y="343"/>
      <point x="297" y="374"/>
      <point x="297" y="453" type="curve" smooth="yes"/>
      <point x="297" y="502"/>
      <point x="266" y="536"/>
      <point x="216" y="541" type="curve"/>
      <point x="216" y="529" type="line"/>
      <point x="254" y="534"/>
      <point x="279" y="563"/>
      <point x="279" y="602" type="curve" smooth="yes"/>
      <point x="279" y="658"/>
      <point x="236" y="691"/>
      <point x="164" y="691" type="curve" smooth="yes"/>
      <point x="93" y="691"/>
      <point x="45" y="652"/>
      <point x="24" y="585" type="curve"/>
      <point x="108" y="585" type="line"/>
      <point x="117" y="608"/>
      <point x="133" y="618"/>
      <point x="159" y="618" type="curve" smooth="yes"/>
      <point x="173" y="618"/>
      <point x="190" y="611"/>
      <point x="190" y="588" type="curve" smooth="yes"/>
      <point x="190" y="562"/>
      <point x="156" y="554"/>
      <point x="130" y="554" type="curve"/>
      <point x="130" y="498" type="line"/>
      <point x="142" y="499"/>
      <point x="145" y="499"/>
      <point x="153" y="499" type="curve" smooth="yes"/>
      <point x="188" y="499"/>
      <point x="208" y="484"/>
      <point x="208" y="455" type="curve" smooth="yes"/>
      <point x="208" y="431"/>
      <point x="187" y="416"/>
      <point x="159" y="416" type="curve" smooth="yes"/>
      <point x="127" y="416"/>
      <point x="109" y="433"/>
      <point x="104" y="454" type="curve"/>
    </contour>
    <contour>
      <point x="105" y="0" type="line"/>
      <point x="216" y="0" type="line"/>
      <point x="702" y="680" type="line"/>
      <point x="591" y="680" type="line"/>
    </contour>
    <contour>
      <point x="428" y="57" type="line"/>
      <point x="704" y="57" type="line"/>
      <point x="704" y="127" type="line"/>
      <point x="499" y="127" type="line"/>
      <point x="507" y="106" type="line"/>
      <point x="598" y="237" type="line"/>
      <point x="585" y="240" type="line"/>
      <point x="585" y="0" type="line"/>
      <point x="669" y="0" type="line"/>
      <point x="669" y="326" type="line"/>
      <point x="578" y="326" type="line"/>
      <point x="428" y="121" type="line"/>
    </contour>
  </outline>
</glyph>
<glyph name="Eth" format="2">
  <advance width="660"/>
  <unicode hex="00D0"/>
  <outline>
    <contour>
      <point x="10" y="315" type="line"/>
      <point x="290" y="315" type="line"/>
      <point x="290" y="405" type="line"/>
      <point x="10" y="405" type="line"/>
    </contour>
    <contour>
      <point x="59" y="0" type="line"/>
      <point x="160" y="0" type="line"/>
      <point x="160" y="680" type="line"/>
      <point x="59" y="680" type="line"/>
    </contour>
    <contour>
      <point x="78" y="0" type="line"/>
      <point x="264" y="0" type="line" smooth="yes"/>
      <point x="455" y="0"/>
      <point x="548" y="139"/>
      <point x="548" y="340" type="curve" smooth="yes"/>
      <point x="548" y="538"/>
      <point x="454" y="680"/>
      <point x="264" y="680" type="curve" smooth="yes"/>
      <point x="78" y="680" type="line"/>
      <point x="78" y="590" type="line"/>
      <point x="264" y="590" type="line" smooth="yes"/>
      <point x="403" y="590"/>
      <point x="447" y="483"/>
      <point x="447" y="340" type="curve" smooth="yes"/>
      <point x="447" y="233"/>
      <point x="401" y="90"/>
      <point x="264" y="90" type="curve" smooth="yes"/>
      <point x="78" y="90" type="line"/>
    </contour>
  </outline>
</glyph>
<glyph name="Oslash" format="2">
  <advance width="660"/>
  <unicode hex="00D8"/>
  <outline>
    <contour>
      <point x="-21" y="-10" type="line"/>
      <point x="89" y="-10" type="line"/>
      <point x="681" y="690" type="line"/>
      <point x="571" y="690" type="line"/>
    </contour>
    <contour>
      <point x="47" y="340" type="curve" smooth="yes"/>
      <point x="47" y="119"/>
      <point x="157" y="-12"/>
      <point x="330" y="-12" type="curve"/>
      <point x="330" y="78" type="line"/>
      <point x="214" y="78"/>
      <point x="148" y="172"/>
      <point x="148" y="340" type="curve" smooth="yes"/>
      <point x="148" y="508"/>
      <point x="214" y="602"/>
      <point x="330" y="602" type="curve"/>
      <point x="330" y="692" type="line"/>
      <point x="157" y="692"/>
      <point x="47" y="561"/>
    </contour>
    <contour>
      <point x="613" y="340" type="curve" smooth="yes"/>
      <point x="613" y="561"/>
      <point x="503" y="692"/>
      <point x="330" y="692" type="curve"/>
      <point x="330" y="602" type="line"/>
      <point x="446" y="602"/>
      <point x="512" y="508"/>
      <point x="512" y="340" type="curve" smooth="yes"/>
      <point x="512" y="172"/>
      <point x="446" y="78"/>
      <point x="330" y="78" type="curve"/>
      <point x="330" y="-12" type="line"/>
      <point x="503" y="-12"/>
      <point x="613" y="119"/>
    </contour>
  </outline>
</glyph>
<glyph name="Thorn" format="2">
  <advance width="598"/>
  <unicode hex="00DE"/>
  <outline>
    <contour>
      <point x="59" y="0" type="line"/>
      <point x="157" y="0" type="line"/>
      <point x="157" y="681" type="line"/>
      <point x="59" y="681" type="line"/>
    </contour>
    <contour>
      <point x="140" y="101" type="line"/>
      <point x="242" y="101" type="line" smooth="yes"/>
      <point x="470" y="101"/>
      <point x="550" y="219"/>
      <point x="550" y="349" type="curve" smooth="yes"/>
      <point x="550" y="482"/>
      <point x="474" y="597"/>
      <point x="249" y="597" type="curve" smooth="yes"/>
      <point x="140" y="597" type="line"/>
      <point x="140" y="508" type="line"/>
      <point x="242" y="508" type="line" smooth="yes"/>
      <point x="425" y="508"/>
      <point x="452" y="398"/>
      <point x="452" y="348" type="curve" smooth="yes"/>
      <point x="452" y="251"/>
      <point x="400" y="189"/>
      <point x="242" y="189" type="curve" smooth="yes"/>
      <point x="140" y="189" type="line"/>
    </contour>
  </outline>
</glyph>
<glyph name="hbar" format="2">
  <advance width="622"/>
  <unicode hex="0127"/>
  <outline>
    <component base="h"/>
    <contour>
      <point x="0" y="548" type="line"/>
      <point x="298" y="548" type="line"/>
      <point x="298" y="615" type="line"/>
      <point x="0" y="615" type="line"/>
    </contour>
  </outline>
</glyph>
<glyph name="eng" format="2">
  <advance width="621"/>
  <unicode hex="014B"/>
  <outline>
    <component base="n"/>
    <contour>
      <point x="393" y="-200" type="line"/>
      <point x="422" y="-200" type="line" smooth="yes"/>
      <point x="492" y="-200"/>
      <point x="555" y="-143"/>
      <point x="555" y="-62" type="curve" smooth="yes"/>
      <point x="555" y="92" type="line"/>
      <point x="463" y="92" type="line"/>
      <point x="463" y="-27" type="line" smooth="yes"/>
      <point x="463" y="-84"/>
      <point x="441" y="-111"/>
      <point x="393" y="-111" type="curve"/>
    </contour>
  </outline>
</glyph>
<glyph name="oe" format="2">
  <advance width="828"/>
  <unicode hex="0153"/>
  <outline>
    <contour>
      <point x="40" y="230" type="curve" smooth="yes"/>
      <point x="40" y="86"/>
      <point x="124" y="-12"/>
      <point x="249" y="-12" type="curve"/>
      <point x="249" y="64" type="line"/>
      <point x="183" y="64"/>
      <point x="132" y="116"/>
      <point x="132" y="230" type="curve" smooth="yes"/>
      <point x="132" y="349"/>
      <point x="182" y="396"/>
      <point x="249" y="396" type="curve"/>
      <point x="249" y="472" type="line"/>
      <point x="132" y="472"/>
      <point x="40" y="364"/>
    </contour>
    <contour>
      <point x="458" y="230" type="curve" smooth="yes"/>
      <point x="458" y="374"/>
      <point x="374" y="472"/>
      <point x="249" y="472" type="curve"/>
      <point x="249" y="396" type="line"/>
      <point x="315" y="396"/>
      <point x="366" y="344"/>
      <point x="366" y="230" type="curve" smooth="yes"/>
      <point x="366" y="111"/>
      <point x="316" y="64"/>
      <point x="249" y="64" type="curve"/>
      <point x="249" y="-12" type="line"/>
      <point x="366" y="-12"/>
      <point x="458" y="96"/>
    </contour>
    <contour>
      <point x="367" y="240" type="curve" smooth="yes"/>
      <point x="367" y="116"/>
      <point x="430" y="-12"/>
      <point x="578" y="-12" type="curve" smooth="yes"/>
      <point x="724" y="-12"/>
      <point x="766" y="72"/>
      <point x="779" y="145" type="curve"/>
      <point x="686" y="145" type="line"/>
      <point x="677" y="103"/>
      <point x="644" y="66"/>
      <point x="579" y="66" type="curve" smooth="yes"/>
      <point x="484" y="66"/>
      <point x="461" y="163"/>
      <point x="461" y="240" type="curve" smooth="yes"/>
      <point x="461" y="317"/>
      <point x="487" y="394"/>
      <point x="578" y="394" type="curve" smooth="yes"/>
      <point x="673" y="394"/>
      <point x="688" y="312"/>
      <point x="689" y="279" type="curve"/>
      <point x="424" y="279" type="line"/>
      <point x="424" y="208" type="line"/>
      <point x="788" y="208" type="line"/>
      <point x="788" y="239" type="line" smooth="yes"/>
      <point x="788" y="363"/>
      <point x="718" y="472"/>
      <point x="578" y="472" type="curve" smooth="yes"/>
      <point x="438" y="472"/>
      <point x="367" y="363"/>
    </contour>
  </outline>
</glyph>
<glyph name="tbar" format="2">
  <advance width="355"/>
  <unicode hex="0167"/>
  <outline>
    <contour>
      <point x="37" y="238" type="line"/>
      <point x="257" y="238" type="line"/>
      <point x="257" y="312" type="line"/>
      <point x="37" y="312" type="line"/>
    </contour>
    <contour>
      <point x="37" y="393" type="line"/>
      <point x="288" y="393" type="line"/>
      <point x="288" y="460" type="line"/>
      <point x="119" y="460" type="line"/>
      <point x="37" y="440" type="line"/>
    </contour>
    <contour>
      <point x="112" y="180" type="line" smooth="yes"/>
      <point x="112" y="44"/>
      <point x="136" y="-9"/>
      <point x="286" y="-9" type="curve" smooth="yes"/>
      <point x="319" y="-9" type="line"/>
      <point x="319" y="63" type="line"/>
      <point x="285" y="63" type="line" smooth="yes"/>
      <point x="216" y="63"/>
      <point x="204" y="90"/>
      <point x="204" y="188" type="curve" smooth="yes"/>
      <point x="204" y="610" type="line"/>
      <point x="132" y="610" type="line"/>
      <point x="118" y="453" type="line"/>
      <point x="112" y="453" type="line"/>
    </contour>
  </outline>
</glyph>
<glyph name="longs" format="2">
  <advance width="377"/>
  <unicode hex="017F"/>
  <anchor x="190" y="740" name="top"/>
  <outline>
    <contour>
      <point x="137" y="0" type="line"/>
      <point x="229" y="0" type="line"/>
      <point x="229" y="500" type="line" smooth="yes"/>
      <point x="229" y="599"/>
      <point x="247" y="628"/>
      <point x="309" y="628" type="curve" smooth="yes"/>
      <point x="340" y="628" type="line"/>
      <point x="340" y="700" type="line"/>
      <point x="309" y="700" type="line" smooth="yes"/>
      <point x="164" y="700"/>
      <point x="137" y="642"/>
      <point x="137" y="500" type="curve" smooth="yes"/>
    </contour>
    <contour>
      <point x="43" y="393" type="line"/>
      <point x="172" y="393" type="line"/>
      <point x="172" y="460" type="line"/>
      <point x="43" y="460" type="line"/>
    </contour>
  </outline>
</glyph>
<glyph name="Obar" format="2">
  <advance width="776"/>
  <unicode hex="019F"/>
  <anchor x="391" y="740" name="top"/>
  <outline>
    <component base="O"/>
    <contour>
      <point x="102" y="313" type="line"/>
      <point x="677" y="313" type="line"/>
      <point x="677" y="401" type="line"/>
      <point x="102" y="401" type="line"/>
    </contour>
  </outline>
</glyph>
<glyph name="dotaccent" format="2">
  <advance width="192"/>
  <unicode hex="02D9"/>
  <outline>
    <contour>
      <point x="50" y="540" type="line"/>
      <point x="142" y="540" type="line"/>
      <point x="142" y="632" type="line"/>
      <point x="50" y="632" type="line"/>
    </contour>
  </outline>
</glyph>
<glyph name="hungarumlaut" format="2">
  <advance width="368"/>
  <unicode hex="02DD"/>
  <anchor x="154" y="530" name="_top"/>
  <outline>
    <contour>
      <point x="49" y="530" type="line"/>
      <point x="100" y="530" type="line"/>
      <point x="204" y="692" type="line"/>
      <point x="114" y="692" type="line"/>
    </contour>
    <contour>
      <point x="200" y="530" type="line"/>
      <point x="251" y="530" type="line"/>
      <point x="355" y="692" type="line"/>
      <point x="265" y="692" type="line"/>
    </contour>
  </outline>
  <guideline angle="0" x="0" y="530"/>
</glyph>
<glyph name="uni0304" format="2">
  <unicode hex="0304"/>
  <anchor x="-269" y="530" name="_top"/>
  <outline>
    <contour>
      <point x="-408" y="530" type="line"/>
      <point x="-130" y="530" type="line"/>
      <point x="-130" y="610" type="line"/>
      <point x="-408" y="610" type="line"/>
    </contour>
  </outline>
  <guideline angle="0" x="0" y="530"/>
  <guideline angle="90" x="-408" y="0"/>
  <guideline angle="0" x="0" y="610"/>
  <guideline angle="90" x="-269" y="0"/>
</glyph>
<glyph name="uni030A" format="2">
  <unicode hex="030A"/>
  <anchor x="-189" y="530" name="_t.ring"/>
  <outline>
    <contour>
      <point x="-276" y="617" type="curve" smooth="yes"/>
      <point x="-276" y="569"/>
      <point x="-237" y="530"/>
      <point x="-189" y="530" type="curve" smooth="yes"/>
      <point x="-141" y="530"/>
      <point x="-102" y="569"/>
      <point x="-102" y="617" type="curve" smooth="yes"/>
      <point x="-102" y="665"/>
      <point x="-141" y="704"/>
      <point x="-189" y="704" type="curve" smooth="yes"/>
      <point x="-237" y="704"/>
      <point x="-276" y="665"/>
    </contour>
    <contour>
      <point x="-220" y="617" type="curve" smooth="yes"/>
      <point x="-220" y="634"/>
      <point x="-206" y="648"/>
      <point x="-189" y="648" type="curve" smooth="yes"/>
      <point x="-172" y="648"/>
      <point x="-158" y="634"/>
      <point x="-158" y="617" type="curve" smooth="yes"/>
      <point x="-158" y="600"/>
      <point x="-172" y="586"/>
      <point x="-189" y="586" type="curve" smooth="yes"/>
      <point x="-206" y="586"/>
      <point x="-220" y="600"/>
    </contour>
  </outline>
</glyph>
<glyph name="uni0312" format="2">
  <unicode hex="0312"/>
  <outline>
    <contour>
      <point x="-131" y="711" type="line"/>
      <point x="-172" y="711" type="line"/>
      <point x="-220" y="597" type="line"/>
      <point x="-220" y="510" type="line"/>
      <point x="-130" y="510" type="line"/>
      <point x="-130" y="598" type="line"/>
      <point x="-154" y="598" type="line"/>
    </contour>
  </outline>
</glyph>
<glyph name="brevebelowcomb" format="2">
  <unicode hex="032E"/>
  <anchor x="-276" y="-40" name="_bottom"/>
  <outline>
    <contour>
      <point x="-422" y="-40" type="line"/>
      <point x="-422" y="-126"/>
      <point x="-362" y="-180"/>
      <point x="-276" y="-180" type="curve" smooth="yes"/>
      <point x="-190" y="-180"/>
      <point x="-130" y="-126"/>
      <point x="-130" y="-40" type="curve"/>
      <point x="-215" y="-40" type="line"/>
      <point x="-215" y="-85"/>
      <point x="-242" y="-114"/>
      <point x="-276" y="-114" type="curve" smooth="yes"/>
      <point x="-310" y="-114"/>
      <point x="-337" y="-85"/>
      <point x="-337" y="-40" type="curve"/>
    </contour>
  </outline>
  <guideline angle="90" x="-422" y="0"/>
  <guideline angle="0" x="0" y="-180"/>
  <guideline angle="90" name="h_1" x="-276" y="0"/>
</glyph>
<glyph name="uni040B" format="2">
  <advance width="796"/>
  <unicode hex="040B"/>
  <outline>
    <component base="T"/>
    <contour>
      <point x="282" y="240" type="line"/>
      <point x="333" y="240" type="line"/>
      <point x="333" y="325"/>
      <point x="410" y="397"/>
      <point x="501" y="397" type="curve" smooth="yes"/>
      <point x="588" y="397"/>
      <point x="638" y="350"/>
      <point x="638" y="275" type="curve" smooth="yes"/>
      <point x="638" y="0" type="line"/>
      <point x="730" y="0" type="line"/>
      <point x="730" y="295" type="line" smooth="yes"/>
      <point x="730" y="400"/>
      <point x="643" y="472"/>
      <point x="515" y="472" type="curve" smooth="yes"/>
      <point x="429" y="472"/>
      <point x="360" y="441"/>
      <point x="314" y="382" type="curve"/>
      <point x="358" y="382" type="line"/>
      <point x="358" y="408" type="line"/>
      <point x="282" y="408" type="line"/>
    </contour>
  </outline>
</glyph>
<glyph name="uni0411" format="2">
  <advance width="698"/>
  <unicode hex="0411"/>
  <outline>
    <contour>
      <point x="156" y="0" type="line"/>
      <point x="327" y="0" type="line" smooth="yes"/>
      <point x="551" y="0"/>
      <point x="635" y="80"/>
      <point x="635" y="206" type="curve" smooth="yes"/>
      <point x="635" y="341"/>
      <point x="564" y="404"/>
      <point x="327" y="404" type="curve" smooth="yes"/>
      <point x="156" y="404" type="line"/>
      <point x="156" y="315" type="line"/>
      <point x="320" y="315" type="line" smooth="yes"/>
      <point x="497" y="315"/>
      <point x="536" y="270"/>
      <point x="536" y="206" type="curve" smooth="yes"/>
      <point x="536" y="136"/>
      <point x="501" y="90"/>
      <point x="320" y="90" type="curve" smooth="yes"/>
      <point x="156" y="90" type="line"/>
    </contour>
    <contour>
      <point x="62" y="0" type="line"/>
      <point x="161" y="0" type="line"/>
      <point x="161" y="680" type="line"/>
      <point x="62" y="680" type="line"/>
    </contour>
    <contour>
      <point x="107" y="590" type="line"/>
      <point x="547" y="590" type="line"/>
      <point x="547" y="680" type="line"/>
      <point x="107" y="680" type="line"/>
    </contour>
  </outline>
  <guideline angle="90" x="143" y="0"/>
</glyph>
<glyph name="uni0414" format="2">
  <advance width="848"/>
  <unicode hex="0414"/>
  <outline>
    <contour>
      <point x="37" y="-150" type="line"/>
      <point x="132" y="-150" type="line"/>
      <point x="132" y="0" type="line"/>
      <point x="721" y="0" type="line"/>
      <point x="721" y="-150" type="line"/>
      <point x="816" y="-150" type="line"/>
      <point x="816" y="89" type="line"/>
      <point x="37" y="89" type="line"/>
    </contour>
    <contour>
      <point x="37" y="-10" type="line"/>
      <point x="151" y="-10"/>
      <point x="256" y="68"/>
      <point x="280" y="370" type="curve" smooth="yes"/>
      <point x="305" y="680" type="line"/>
      <point x="210" y="680" type="line"/>
      <point x="185" y="370" type="line" smooth="yes"/>
      <point x="170" y="189"/>
      <point x="134" y="80"/>
      <point x="37" y="80" type="curve"/>
    </contour>
    <contour>
      <point x="210" y="591" type="line"/>
      <point x="670" y="591" type="line"/>
      <point x="670" y="680" type="line"/>
      <point x="210" y="680" type="line"/>
    </contour>
    <contour>
      <point x="607" y="0" type="line"/>
      <point x="706" y="0" type="line"/>
      <point x="706" y="680" type="line"/>
      <point x="607" y="680" type="line"/>
    </contour>
  </outline>
</glyph>
<glyph name="uni0416" format="2">
  <advance width="1144"/>
  <unicode hex="0416"/>
  <outline>
    <contour>
      <point x="10" y="0" type="line"/>
      <point x="140" y="0" type="line"/>
      <point x="356" y="350" type="line"/>
      <point x="503" y="186" type="line"/>
      <point x="503" y="328" type="line"/>
      <point x="189" y="680" type="line"/>
      <point x="59" y="680" type="line"/>
      <point x="280" y="436" type="line"/>
    </contour>
    <contour>
      <point x="523" y="0" type="line"/>
      <point x="622" y="0" type="line"/>
      <point x="622" y="680" type="line"/>
      <point x="523" y="680" type="line"/>
    </contour>
    <contour>
      <point x="641" y="186" type="line"/>
      <point x="788" y="352" type="line"/>
      <point x="1004" y="0" type="line"/>
      <point x="1134" y="0" type="line"/>
      <point x="866" y="436" type="line"/>
      <point x="1085" y="680" type="line"/>
      <point x="955" y="680" type="line"/>
      <point x="641" y="328" type="line"/>
    </contour>
  </outline>
</glyph>
<glyph name="uni0417" format="2">
  <advance width="698"/>
  <unicode hex="0417"/>
  <outline>
    <contour>
      <point x="62" y="187" type="line"/>
      <point x="62" y="63"/>
      <point x="207" y="-2"/>
      <point x="342" y="-2" type="curve" smooth="yes"/>
      <point x="509" y="-2"/>
      <point x="635" y="68"/>
      <point x="635" y="209" type="curve" smooth="yes"/>
      <point x="635" y="312"/>
      <point x="559" y="381"/>
      <point x="439" y="389" type="curve"/>
      <point x="439" y="364" type="line"/>
      <point x="532" y="384"/>
      <point x="574" y="449"/>
      <point x="574" y="512" type="curve" smooth="yes"/>
      <point x="574" y="630"/>
      <point x="481" y="690"/>
      <point x="312" y="690" type="curve" smooth="yes"/>
      <point x="184" y="690"/>
      <point x="62" y="622"/>
      <point x="62" y="508" type="curve"/>
      <point x="157" y="508" type="line"/>
      <point x="157" y="573"/>
      <point x="239" y="600"/>
      <point x="311" y="600" type="curve" smooth="yes"/>
      <point x="397" y="600"/>
      <point x="475" y="568"/>
      <point x="475" y="509" type="curve" smooth="yes"/>
      <point x="475" y="425"/>
      <point x="425" y="409"/>
      <point x="316" y="409" type="curve" smooth="yes"/>
      <point x="265" y="409" type="line"/>
      <point x="265" y="322" type="line"/>
      <point x="321" y="322" type="line" smooth="yes"/>
      <point x="462" y="322"/>
      <point x="536" y="282"/>
      <point x="536" y="206" type="curve" smooth="yes"/>
      <point x="536" y="121"/>
      <point x="437" y="88"/>
      <point x="341" y="88" type="curve" smooth="yes"/>
      <point x="232" y="88"/>
      <point x="157" y="141"/>
      <point x="157" y="187" type="curve"/>
    </contour>
  </outline>
</glyph>
<glyph name="uni0418" format="2">
  <advance width="774"/>
  <unicode hex="0418"/>
  <outline>
    <contour>
      <point x="61" y="0" type="line"/>
      <point x="200" y="0" type="line"/>
      <point x="545" y="482" type="line"/>
      <point x="565" y="512"/>
      <point x="581" y="537"/>
      <point x="599" y="575" type="curve"/>
      <point x="625" y="575" type="line"/>
      <point x="619" y="549"/>
      <point x="614" y="485"/>
      <point x="614" y="458" type="curve" smooth="yes"/>
      <point x="614" y="0" type="line"/>
      <point x="713" y="0" type="line"/>
      <point x="713" y="680" type="line"/>
      <point x="574" y="680" type="line"/>
      <point x="225" y="200" type="line" smooth="yes"/>
      <point x="206" y="175"/>
      <point x="189" y="141"/>
      <point x="175" y="108" type="curve"/>
      <point x="149" y="108" type="line"/>
      <point x="156" y="134"/>
      <point x="160" y="172"/>
      <point x="160" y="224" type="curve" smooth="yes"/>
      <point x="160" y="680" type="line"/>
      <point x="61" y="680" type="line"/>
    </contour>
  </outline>
</glyph>
<glyph name="uni041B" format="2">
  <advance width="733"/>
  <unicode hex="041B"/>
  <outline>
    <contour>
      <point x="41" y="-9" type="line"/>
      <point x="49" y="-9" type="line" smooth="yes"/>
      <point x="171" y="-9"/>
      <point x="251" y="83"/>
      <point x="280" y="370" type="curve" smooth="yes"/>
      <point x="311" y="680" type="line"/>
      <point x="207" y="680" type="line"/>
      <point x="181" y="357" type="line"/>
      <point x="169" y="261"/>
      <point x="139" y="92"/>
      <point x="56" y="92" type="curve" smooth="yes"/>
      <point x="41" y="92" type="line"/>
    </contour>
    <contour>
      <point x="210" y="590" type="line"/>
      <point x="670" y="590" type="line"/>
      <point x="670" y="680" type="line"/>
      <point x="210" y="680" type="line"/>
    </contour>
    <contour>
      <point x="577" y="0" type="line"/>
      <point x="676" y="0" type="line"/>
      <point x="676" y="680" type="line"/>
      <point x="577" y="680" type="line"/>
    </contour>
  </outline>
</glyph>
<glyph name="uni041F" format="2">
  <advance width="711"/>
  <unicode hex="041F"/>
  <outline>
    <contour>
      <point x="62" y="0" type="line"/>
      <point x="161" y="0" type="line"/>
      <point x="161" y="590" type="line"/>
      <point x="549" y="590" type="line"/>
      <point x="549" y="0" type="line"/>
      <point x="647" y="0" type="line"/>
      <point x="647" y="680" type="line"/>
      <point x="62" y="680" type="line"/>
    </contour>
  </outline>
</glyph>
<glyph name="uni0423" format="2">
  <advance width="615"/>
  <unicode hex="0423"/>
  <outline>
    <contour>
      <point x="10" y="680" type="line"/>
      <point x="286" y="152" type="line"/>
      <point x="357" y="223" type="line"/>
      <point x="125" y="680" type="line"/>
    </contour>
    <contour>
      <point x="88" y="-9" type="line"/>
      <point x="86" y="-9" type="line"/>
      <point x="231" y="-9"/>
      <point x="307" y="26"/>
      <point x="378" y="183" type="curve" smooth="yes"/>
      <point x="605" y="680" type="line"/>
      <point x="498" y="680" type="line"/>
      <point x="282" y="194" type="line" smooth="yes"/>
      <point x="242" y="105"/>
      <point x="205" y="92"/>
      <point x="80" y="92" type="curve"/>
      <point x="88" y="92" type="line"/>
    </contour>
  </outline>
</glyph>
<glyph name="uni0424" format="2">
  <advance width="1011"/>
  <unicode hex="0424"/>
  <outline>
    <contour>
      <point x="62" y="349" type="curve" smooth="yes"/>
      <point x="62" y="186"/>
      <point x="169" y="69"/>
      <point x="394" y="69" type="curve" smooth="yes"/>
      <point x="413" y="69"/>
      <point x="451" y="69"/>
      <point x="472" y="71" type="curve"/>
      <point x="472" y="160" type="line"/>
      <point x="465" y="159"/>
      <point x="427" y="158"/>
      <point x="401" y="158" type="curve" smooth="yes"/>
      <point x="217" y="158"/>
      <point x="161" y="270"/>
      <point x="161" y="350" type="curve" smooth="yes"/>
      <point x="161" y="477"/>
      <point x="242" y="541"/>
      <point x="401" y="541" type="curve" smooth="yes"/>
      <point x="427" y="541"/>
      <point x="465" y="540"/>
      <point x="472" y="539" type="curve"/>
      <point x="472" y="627" type="line"/>
      <point x="455" y="628"/>
      <point x="418" y="629"/>
      <point x="401" y="629" type="curve" smooth="yes"/>
      <point x="172" y="629"/>
      <point x="62" y="509"/>
    </contour>
    <contour>
      <point x="456" y="0" type="line"/>
      <point x="554" y="0" type="line"/>
      <point x="554" y="681" type="line"/>
      <point x="456" y="681" type="line"/>
    </contour>
    <contour>
      <point x="537" y="71" type="line"/>
      <point x="556" y="69"/>
      <point x="592" y="69"/>
      <point x="609" y="69" type="curve" smooth="yes"/>
      <point x="837" y="69"/>
      <point x="947" y="189"/>
      <point x="947" y="349" type="curve" smooth="yes"/>
      <point x="947" y="512"/>
      <point x="841" y="629"/>
      <point x="616" y="629" type="curve" smooth="yes"/>
      <point x="596" y="629"/>
      <point x="560" y="629"/>
      <point x="537" y="627" type="curve"/>
      <point x="537" y="538" type="line"/>
      <point x="545" y="539"/>
      <point x="582" y="540"/>
      <point x="609" y="540" type="curve" smooth="yes"/>
      <point x="792" y="540"/>
      <point x="849" y="428"/>
      <point x="849" y="348" type="curve" smooth="yes"/>
      <point x="849" y="221"/>
      <point x="767" y="157"/>
      <point x="609" y="157" type="curve" smooth="yes"/>
      <point x="582" y="157"/>
      <point x="545" y="158"/>
      <point x="537" y="159" type="curve"/>
    </contour>
  </outline>
</glyph>
<glyph name="uni0426" format="2">
  <advance width="761"/>
  <unicode hex="0426"/>
  <outline>
    <contour>
      <point x="62" y="0" type="line"/>
      <point x="555" y="0" type="line"/>
      <point x="555" y="81" type="line"/>
      <point x="62" y="81" type="line"/>
    </contour>
    <contour>
      <point x="582" y="0" type="line"/>
      <point x="640" y="0" type="line"/>
      <point x="640" y="-140" type="line"/>
      <point x="712" y="-140" type="line"/>
      <point x="712" y="81" type="line"/>
      <point x="582" y="81" type="line"/>
    </contour>
    <contour>
      <point x="62" y="0" type="line"/>
      <point x="161" y="0" type="line"/>
      <point x="161" y="680" type="line"/>
      <point x="62" y="680" type="line"/>
    </contour>
    <contour>
      <point x="520" y="0" type="line"/>
      <point x="619" y="0" type="line"/>
      <point x="619" y="680" type="line"/>
      <point x="520" y="680" type="line"/>
    </contour>
  </outline>
</glyph>
<glyph name="uni0427" format="2">
  <advance width="618"/>
  <unicode hex="0427"/>
  <outline>
    <contour>
      <point x="62" y="494" type="line" smooth="yes"/>
      <point x="62" y="372"/>
      <point x="136" y="307"/>
      <point x="255" y="307" type="curve" smooth="yes"/>
      <point x="454" y="307" type="line"/>
      <point x="454" y="397" type="line"/>
      <point x="294" y="397" type="line" smooth="yes"/>
      <point x="185" y="397"/>
      <point x="157" y="422"/>
      <point x="157" y="500" type="curve" smooth="yes"/>
      <point x="157" y="680" type="line"/>
      <point x="62" y="680" type="line"/>
    </contour>
    <contour>
      <point x="456" y="0" type="line"/>
      <point x="555" y="0" type="line"/>
      <point x="555" y="680" type="line"/>
      <point x="456" y="680" type="line"/>
    </contour>
  </outline>
</glyph>
<glyph name="uni0428" format="2">
  <advance width="1031"/>
  <unicode hex="0428"/>
  <outline>
    <contour>
      <point x="117" y="0" type="line"/>
      <point x="920" y="0" type="line"/>
      <point x="920" y="81" type="line"/>
      <point x="117" y="81" type="line"/>
    </contour>
    <contour>
      <point x="62" y="0" type="line"/>
      <point x="161" y="0" type="line"/>
      <point x="161" y="680" type="line"/>
      <point x="62" y="680" type="line"/>
    </contour>
    <contour>
      <point x="465" y="0" type="line"/>
      <point x="564" y="0" type="line"/>
      <point x="564" y="680" type="line"/>
      <point x="465" y="680" type="line"/>
    </contour>
    <contour>
      <point x="869" y="0" type="line"/>
      <point x="968" y="0" type="line"/>
      <point x="968" y="680" type="line"/>
      <point x="869" y="680" type="line"/>
    </contour>
  </outline>
</glyph>
<glyph name="uni0429" format="2">
  <advance width="1118"/>
  <unicode hex="0429"/>
  <outline>
    <contour>
      <point x="117" y="0" type="line"/>
      <point x="920" y="0" type="line"/>
      <point x="920" y="81" type="line"/>
      <point x="117" y="81" type="line"/>
    </contour>
    <contour>
      <point x="946" y="0" type="line"/>
      <point x="1004" y="0" type="line"/>
      <point x="1004" y="-140" type="line"/>
      <point x="1076" y="-140" type="line"/>
      <point x="1076" y="81" type="line"/>
      <point x="946" y="81" type="line"/>
    </contour>
    <contour>
      <point x="62" y="0" type="line"/>
      <point x="161" y="0" type="line"/>
      <point x="161" y="680" type="line"/>
      <point x="62" y="680" type="line"/>
    </contour>
    <contour>
      <point x="465" y="0" type="line"/>
      <point x="564" y="0" type="line"/>
      <point x="564" y="680" type="line"/>
      <point x="465" y="680" type="line"/>
    </contour>
    <contour>
      <point x="869" y="0" type="line"/>
      <point x="967" y="0" type="line"/>
      <point x="967" y="680" type="line"/>
      <point x="869" y="680" type="line"/>
    </contour>
  </outline>
</glyph>
<glyph name="uni042A" format="2">
  <advance width="870"/>
  <unicode hex="042A"/>
  <outline>
    <contour>
      <point x="250" y="0" type="line"/>
      <point x="515" y="0" type="line" smooth="yes"/>
      <point x="739" y="0"/>
      <point x="822" y="80"/>
      <point x="822" y="206" type="curve" smooth="yes"/>
      <point x="822" y="341"/>
      <point x="751" y="404"/>
      <point x="515" y="404" type="curve" smooth="yes"/>
      <point x="344" y="404" type="line"/>
      <point x="344" y="315" type="line"/>
      <point x="507" y="315" type="line" smooth="yes"/>
      <point x="685" y="315"/>
      <point x="724" y="270"/>
      <point x="724" y="206" type="curve" smooth="yes"/>
      <point x="724" y="136"/>
      <point x="689" y="90"/>
      <point x="507" y="90" type="curve" smooth="yes"/>
      <point x="250" y="90" type="line"/>
    </contour>
    <contour>
      <point x="250" y="0" type="line"/>
      <point x="349" y="0" type="line"/>
      <point x="349" y="680" type="line"/>
      <point x="250" y="680" type="line"/>
    </contour>
    <contour>
      <point x="62" y="590" type="line"/>
      <point x="335" y="590" type="line"/>
      <point x="335" y="680" type="line"/>
      <point x="62" y="680" type="line"/>
    </contour>
  </outline>
</glyph>
<glyph name="uni042C" format="2">
  <advance width="680"/>
  <unicode hex="042C"/>
  <outline>
    <contour>
      <point x="59" y="0" type="line"/>
      <point x="324" y="0" type="line" smooth="yes"/>
      <point x="548" y="0"/>
      <point x="632" y="80"/>
      <point x="632" y="206" type="curve" smooth="yes"/>
      <point x="632" y="341"/>
      <point x="561" y="404"/>
      <point x="324" y="404" type="curve" smooth="yes"/>
      <point x="153" y="404" type="line"/>
      <point x="153" y="315" type="line"/>
      <point x="317" y="315" type="line" smooth="yes"/>
      <point x="494" y="315"/>
      <point x="533" y="270"/>
      <point x="533" y="206" type="curve" smooth="yes"/>
      <point x="533" y="136"/>
      <point x="498" y="90"/>
      <point x="317" y="90" type="curve" smooth="yes"/>
      <point x="59" y="90" type="line"/>
    </contour>
    <contour>
      <point x="59" y="0" type="line"/>
      <point x="158" y="0" type="line"/>
      <point x="158" y="680" type="line"/>
      <point x="59" y="680" type="line"/>
    </contour>
  </outline>
</glyph>
<glyph name="uni042D" format="2">
  <advance width="711"/>
  <unicode hex="042D"/>
  <outline>
    <contour>
      <point x="55" y="185" type="line"/>
      <point x="92" y="84"/>
      <point x="175" y="-12"/>
      <point x="342" y="-12" type="curve" smooth="yes"/>
      <point x="579" y="-12"/>
      <point x="654" y="195"/>
      <point x="654" y="356" type="curve" smooth="yes"/>
      <point x="654" y="532"/>
      <point x="584" y="692"/>
      <point x="342" y="692" type="curve" smooth="yes"/>
      <point x="200" y="692"/>
      <point x="91" y="626"/>
      <point x="55" y="510" type="curve"/>
      <point x="156" y="510" type="line"/>
      <point x="191" y="576"/>
      <point x="254" y="603"/>
      <point x="342" y="603" type="curve" smooth="yes"/>
      <point x="535" y="603"/>
      <point x="557" y="476"/>
      <point x="557" y="354" type="curve" smooth="yes"/>
      <point x="557" y="246"/>
      <point x="514" y="77"/>
      <point x="342" y="77" type="curve" smooth="yes"/>
      <point x="227" y="77"/>
      <point x="180" y="138"/>
      <point x="156" y="185" type="curve"/>
    </contour>
    <contour>
      <point x="344" y="313" type="line"/>
      <point x="585" y="313" type="line"/>
      <point x="585" y="401" type="line"/>
      <point x="344" y="401" type="line"/>
    </contour>
  </outline>
</glyph>
<glyph name="uni042E" format="2">
  <advance width="1042"/>
  <unicode hex="042E"/>
  <outline>
    <contour>
      <point x="118" y="302" type="line"/>
      <point x="354" y="302" type="line"/>
      <point x="354" y="392" type="line"/>
      <point x="118" y="392" type="line"/>
    </contour>
    <contour>
      <point x="309" y="341" type="curve" smooth="yes"/>
      <point x="309" y="153"/>
      <point x="392" y="-12"/>
      <point x="649" y="-12" type="curve" smooth="yes"/>
      <point x="876" y="-12"/>
      <point x="994" y="129"/>
      <point x="994" y="340" type="curve" smooth="yes"/>
      <point x="994" y="548"/>
      <point x="880" y="692"/>
      <point x="649" y="692" type="curve" smooth="yes"/>
      <point x="402" y="692"/>
      <point x="309" y="521"/>
    </contour>
    <contour>
      <point x="407" y="340" type="curve" smooth="yes"/>
      <point x="407" y="488"/>
      <point x="472" y="602"/>
      <point x="649" y="602" type="curve" smooth="yes"/>
      <point x="835" y="602"/>
      <point x="894" y="488"/>
      <point x="894" y="340" type="curve" smooth="yes"/>
      <point x="894" y="227"/>
      <point x="836" y="78"/>
      <point x="649" y="78" type="curve" smooth="yes"/>
      <point x="471" y="78"/>
      <point x="407" y="194"/>
    </contour>
    <contour>
      <point x="59" y="0" type="line"/>
      <point x="157" y="0" type="line"/>
      <point x="157" y="680" type="line"/>
      <point x="59" y="680" type="line"/>
    </contour>
  </outline>
</glyph>
<glyph name="uni042F" format="2">
  <advance width="699"/>
  <unicode hex="042F"/>
  <outline>
    <contour>
      <point x="62" y="474" type="curve" smooth="yes"/>
      <point x="62" y="385"/>
      <point x="145" y="276"/>
      <point x="314" y="276" type="curve" smooth="yes"/>
      <point x="541" y="276" type="line"/>
      <point x="541" y="366" type="line"/>
      <point x="355" y="366" type="line" smooth="yes"/>
      <point x="244" y="366"/>
      <point x="161" y="398"/>
      <point x="161" y="474" type="curve" smooth="yes"/>
      <point x="161" y="559"/>
      <point x="281" y="590"/>
      <point x="395" y="590" type="curve" smooth="yes"/>
      <point x="635" y="590" type="line"/>
      <point x="635" y="680" type="line"/>
      <point x="355" y="680" type="line" smooth="yes"/>
      <point x="187" y="680"/>
      <point x="62" y="612"/>
    </contour>
    <contour>
      <point x="59" y="0" type="line"/>
      <point x="187" y="0" type="line"/>
      <point x="374" y="292" type="line"/>
      <point x="257" y="292" type="line"/>
    </contour>
    <contour>
      <point x="541" y="0" type="line"/>
      <point x="640" y="0" type="line"/>
      <point x="640" y="680" type="line"/>
      <point x="541" y="680" type="line"/>
    </contour>
  </outline>
</glyph>
<glyph name="uni0436" format="2">
  <advance width="850"/>
  <unicode hex="0436"/>
  <outline>
    <contour>
      <point x="520" y="227" type="line"/>
      <point x="709" y="0" type="line"/>
      <point x="831" y="0" type="line"/>
      <point x="588" y="295" type="line"/>
    </contour>
    <contour>
      <point x="454" y="116" type="line"/>
      <point x="804" y="460" type="line"/>
      <point x="679" y="460" type="line"/>
      <point x="454" y="234" type="line"/>
    </contour>
    <contour>
      <point x="19" y="0" type="line"/>
      <point x="143" y="0" type="line"/>
      <point x="331" y="227" type="line"/>
      <point x="263" y="296" type="line"/>
    </contour>
    <contour>
      <point x="46" y="460" type="line"/>
      <point x="398" y="116" type="line"/>
      <point x="398" y="234" type="line"/>
      <point x="173" y="460" type="line"/>
    </contour>
    <contour>
      <point x="379" y="0" type="line"/>
      <point x="471" y="0" type="line"/>
      <point x="471" y="460" type="line"/>
      <point x="379" y="460" type="line"/>
    </contour>
  </outline>
  <guideline angle="134.715" x="373" y="258"/>
  <guideline angle="315.62" x="46" y="460"/>
  <guideline angle="225.142" x="679" y="460"/>
  <guideline angle="44.4679" x="478" y="140"/>
  <guideline angle="0" x="0" y="116"/>
</glyph>
<glyph name="uni0437" format="2">
  <advance width="559"/>
  <unicode hex="0437"/>
  <outline>
    <contour>
      <point x="40" y="151" type="line"/>
      <point x="59" y="36"/>
      <point x="170" y="-11"/>
      <point x="282" y="-11" type="curve" smooth="yes"/>
      <point x="419" y="-11"/>
      <point x="519" y="51"/>
      <point x="519" y="140" type="curve" smooth="yes"/>
      <point x="519" y="194"/>
      <point x="492" y="236"/>
      <point x="431" y="251" type="curve"/>
      <point x="431" y="249" type="line"/>
      <point x="485" y="264"/>
      <point x="505" y="293"/>
      <point x="505" y="338" type="curve" smooth="yes"/>
      <point x="505" y="417"/>
      <point x="410" y="471"/>
      <point x="282" y="471" type="curve" smooth="yes"/>
      <point x="160" y="471"/>
      <point x="55" y="408"/>
      <point x="40" y="319" type="curve"/>
      <point x="144" y="319" type="line"/>
      <point x="154" y="361"/>
      <point x="212" y="386"/>
      <point x="281" y="386" type="curve" smooth="yes"/>
      <point x="366" y="386"/>
      <point x="412" y="365"/>
      <point x="412" y="328" type="curve" smooth="yes"/>
      <point x="412" y="300"/>
      <point x="386" y="276"/>
      <point x="306" y="276" type="curve" smooth="yes"/>
      <point x="237" y="276" type="line"/>
      <point x="237" y="207" type="line"/>
      <point x="311" y="207" type="line" smooth="yes"/>
      <point x="396" y="207"/>
      <point x="429" y="186"/>
      <point x="429" y="140" type="curve" smooth="yes"/>
      <point x="429" y="87"/>
      <point x="346" y="74"/>
      <point x="284" y="74" type="curve" smooth="yes"/>
      <point x="216" y="74"/>
      <point x="147" y="93"/>
      <point x="139" y="151" type="curve"/>
    </contour>
  </outline>
</glyph>
<glyph name="uni043F" format="2">
  <advance width="567"/>
  <unicode hex="043F"/>
  <outline>
    <contour>
      <point x="116" y="381" type="line"/>
      <point x="438" y="381" type="line"/>
      <point x="438" y="460" type="line"/>
      <point x="116" y="460" type="line"/>
    </contour>
    <contour>
      <point x="66" y="0" type="line"/>
      <point x="157" y="0" type="line"/>
      <point x="157" y="460" type="line"/>
      <point x="66" y="460" type="line"/>
    </contour>
    <contour>
      <point x="410" y="0" type="line"/>
      <point x="501" y="0" type="line"/>
      <point x="501" y="460" type="line"/>
      <point x="410" y="460" type="line"/>
    </contour>
  </outline>
</glyph>
<glyph name="uni0442" format="2">
  <advance width="514"/>
  <unicode hex="0442"/>
  <outline>
    <contour>
      <point x="212" y="0" type="line"/>
      <point x="304" y="0" type="line"/>
      <point x="304" y="407" type="line"/>
      <point x="212" y="407" type="line"/>
    </contour>
    <contour>
      <point x="36" y="381" type="line"/>
      <point x="481" y="381" type="line"/>
      <point x="481" y="460" type="line"/>
      <point x="36" y="460" type="line"/>
    </contour>
  </outline>
</glyph>
<glyph name="uni0444" format="2">
  <advance width="755"/>
  <unicode hex="0444"/>
  <outline>
    <contour>
      <point x="332" y="-200" type="line"/>
      <point x="424" y="-200" type="line"/>
      <point x="424" y="700" type="line"/>
      <point x="332" y="700" type="line"/>
    </contour>
    <contour>
      <point x="415" y="-12" type="line"/>
      <point x="417" y="-12" type="line" smooth="yes"/>
      <point x="567" y="-12"/>
      <point x="715" y="74"/>
      <point x="715" y="230" type="curve" smooth="yes"/>
      <point x="715" y="386"/>
      <point x="567" y="472"/>
      <point x="417" y="472" type="curve" smooth="yes"/>
      <point x="415" y="472" type="line"/>
      <point x="415" y="391" type="line"/>
      <point x="417" y="391" type="line" smooth="yes"/>
      <point x="539" y="391"/>
      <point x="623" y="333"/>
      <point x="623" y="230" type="curve" smooth="yes"/>
      <point x="623" y="123"/>
      <point x="539" y="69"/>
      <point x="417" y="69" type="curve" smooth="yes"/>
      <point x="415" y="69" type="line"/>
    </contour>
    <contour>
      <point x="40" y="230" type="curve" smooth="yes"/>
      <point x="40" y="74"/>
      <point x="189" y="-12"/>
      <point x="339" y="-12" type="curve" smooth="yes"/>
      <point x="340" y="-12" type="line"/>
      <point x="340" y="69" type="line"/>
      <point x="339" y="69" type="line" smooth="yes"/>
      <point x="217" y="69"/>
      <point x="133" y="123"/>
      <point x="133" y="230" type="curve" smooth="yes"/>
      <point x="133" y="333"/>
      <point x="217" y="391"/>
      <point x="339" y="391" type="curve" smooth="yes"/>
      <point x="340" y="391" type="line"/>
      <point x="340" y="472" type="line"/>
      <point x="339" y="472" type="line" smooth="yes"/>
      <point x="189" y="472"/>
      <point x="40" y="386"/>
    </contour>
  </outline>
</glyph>
<glyph name="perthousand" format="2">
  <advance width="1040"/>
  <unicode hex="2030"/>
  <outline>
    <contour>
      <point x="30" y="544" type="curve" smooth="yes"/>
      <point x="30" y="418"/>
      <point x="64" y="358"/>
      <point x="168" y="358" type="curve" smooth="yes"/>
      <point x="272" y="358"/>
      <point x="306" y="418"/>
      <point x="306" y="544" type="curve" smooth="yes"/>
      <point x="306" y="670"/>
      <point x="272" y="730"/>
      <point x="168" y="730" type="curve" smooth="yes"/>
      <point x="64" y="730"/>
      <point x="30" y="670"/>
    </contour>
    <contour>
      <point x="101" y="544" type="curve" smooth="yes"/>
      <point x="101" y="616"/>
      <point x="101" y="668"/>
      <point x="168" y="668" type="curve" smooth="yes"/>
      <point x="235" y="668"/>
      <point x="235" y="616"/>
      <point x="235" y="544" type="curve" smooth="yes"/>
      <point x="235" y="472"/>
      <point x="235" y="420"/>
      <point x="168" y="420" type="curve" smooth="yes"/>
      <point x="101" y="420"/>
      <point x="101" y="472"/>
    </contour>
    <contour>
      <point x="110" y="0" type="line"/>
      <point x="201" y="0" type="line"/>
      <point x="608" y="700" type="line"/>
      <point x="521" y="700" type="line"/>
    </contour>
    <contour>
      <point x="414" y="176" type="curve" smooth="yes"/>
      <point x="414" y="50"/>
      <point x="448" y="-10"/>
      <point x="552" y="-10" type="curve" smooth="yes"/>
      <point x="656" y="-10"/>
      <point x="690" y="50"/>
      <point x="690" y="176" type="curve" smooth="yes"/>
      <point x="690" y="302"/>
      <point x="656" y="362"/>
      <point x="552" y="362" type="curve" smooth="yes"/>
      <point x="448" y="362"/>
      <point x="414" y="302"/>
    </contour>
    <contour>
      <point x="485" y="176" type="curve" smooth="yes"/>
      <point x="485" y="248"/>
      <point x="485" y="300"/>
      <point x="552" y="300" type="curve" smooth="yes"/>
      <point x="619" y="300"/>
      <point x="619" y="248"/>
      <point x="619" y="176" type="curve" smooth="yes"/>
      <point x="619" y="104"/>
      <point x="619" y="52"/>
      <point x="552" y="52" type="curve" smooth="yes"/>
      <point x="485" y="52"/>
      <point x="485" y="104"/>
    </contour>
    <contour>
      <point x="734" y="176" type="curve" smooth="yes"/>
      <point x="734" y="50"/>
      <point x="768" y="-10"/>
      <point x="872" y="-10" type="curve" smooth="yes"/>
      <point x="976" y="-10"/>
      <point x="1010" y="50"/>
      <point x="1010" y="176" type="curve" smooth="yes"/>
      <point x="1010" y="302"/>
      <point x="976" y="362"/>
      <point x="872" y="362" type="curve" smooth="yes"/>
      <point x="768" y="362"/>
      <point x="734" y="302"/>
    </contour>
    <contour>
      <point x="805" y="176" type="curve" smooth="yes"/>
      <point x="805" y="248"/>
      <point x="805" y="300"/>
      <point x="872" y="300" type="curve" smooth="yes"/>
      <point x="939" y="300"/>
      <point x="939" y="248"/>
      <point x="939" y="176" type="curve" smooth="yes"/>
      <point x="939" y="104"/>
      <point x="939" y="52"/>
      <point x="872" y="52" type="curve" smooth="yes"/>
      <point x="805" y="52"/>
      <point x="805" y="104"/>
    </contour>
  </outline>
</glyph>
<glyph name="fraction" format="2">
  <advance width="709"/>
  <unicode hex="2044"/>
  <outline>
    <contour>
      <point x="56" y="0" type="line"/>
      <point x="167" y="0" type="line"/>
      <point x="653" y="680" type="line"/>
      <point x="542" y="680" type="line"/>
    </contour>
  </outline>
</glyph>
<glyph name="minus" format="2">
  <advance width="422"/>
  <unicode hex="2212"/>
  <outline>
    <contour>
      <point x="50" y="204" type="line"/>
      <point x="372" y="204" type="line"/>
      <point x="372" y="269" type="line"/>
      <point x="50" y="269" type="line"/>
    </contour>
  </outline>
</glyph>
<glyph name="uni03080303" format="2">
  <anchor x="-181" y="540" name="_top"/>
  <outline>
    <contour>
      <point x="-322" y="680" type="line"/>
      <point x="-40" y="680" type="line"/>
      <point x="-40" y="760" type="line"/>
      <point x="-322" y="760" type="line"/>
    </contour>
    <contour>
      <point x="-334" y="530" type="curve"/>
      <point x="-284" y="530" type="line"/>
      <point x="-279" y="558"/>
      <point x="-264" y="570"/>
      <point x="-244" y="570" type="curve" smooth="yes"/>
      <point x="-229" y="570"/>
      <point x="-212" y="563"/>
      <point x="-197" y="556" type="curve"/>
      <point x="-185" y="550" type="line" smooth="yes"/>
      <point x="-164" y="539"/>
      <point x="-143" y="530"/>
      <point x="-118" y="530" type="curve" smooth="yes"/>
      <point x="-78" y="530"/>
      <point x="-42" y="563"/>
      <point x="-28" y="650" type="curve"/>
      <point x="-78" y="650" type="line"/>
      <point x="-83" y="622"/>
      <point x="-98" y="610"/>
      <point x="-118" y="610" type="curve" smooth="yes"/>
      <point x="-134" y="610"/>
      <point x="-151" y="617"/>
      <point x="-165" y="624" type="curve" smooth="yes"/>
      <point x="-175" y="629" type="line" smooth="yes"/>
      <point x="-197" y="640"/>
      <point x="-219" y="650"/>
      <point x="-244" y="650" type="curve" smooth="yes"/>
      <point x="-284" y="650"/>
      <point x="-320" y="617"/>
    </contour>
  </outline>
  <guideline angle="90" x="-322" y="0"/>
  <guideline angle="90" x="-221" y="0"/>
  <guideline angle="90" x="-141" y="0"/>
  <guideline angle="90" x="-40" y="0"/>
  <guideline angle="0" x="0" y="540"/>
  <guideline angle="0" x="0" y="641"/>
  <guideline angle="90" x="-181" y="0"/>
  <guideline angle="0" x="0" y="680"/>
  <guideline angle="0" x="0" y="760"/>
</glyph>
<glyph name="uni0414.loclBGR" format="2">
  <advance width="851"/>
  <outline>
    <contour>
      <point x="59" y="-150" type="line"/>
      <point x="151" y="-150" type="line"/>
      <point x="151" y="0" type="line"/>
      <point x="706" y="0" type="line"/>
      <point x="706" y="-150" type="line"/>
      <point x="798" y="-150" type="line"/>
      <point x="798" y="90" type="line"/>
      <point x="59" y="90" type="line"/>
    </contour>
    <contour>
      <point x="96" y="0" type="line"/>
      <point x="194" y="0" type="line"/>
      <point x="429" y="632" type="line"/>
      <point x="421" y="632" type="line"/>
      <point x="654" y="0" type="line"/>
      <point x="752" y="0" type="line"/>
      <point x="494" y="700" type="line"/>
      <point x="356" y="700" type="line"/>
    </contour>
  </outline>
</glyph>
<glyph name="uni0433.loclBGR" format="2">
  <advance width="533"/>
  <outline>
    <contour>
      <point x="54" y="120" type="curve" smooth="yes"/>
      <point x="54" y="43"/>
      <point x="137" y="-12"/>
      <point x="257" y="-12" type="curve" smooth="yes"/>
      <point x="401" y="-12"/>
      <point x="488" y="52"/>
      <point x="488" y="151" type="curve"/>
      <point x="406" y="151" type="line"/>
      <point x="406" y="96"/>
      <point x="352" y="64"/>
      <point x="259" y="64" type="curve" smooth="yes"/>
      <point x="191" y="64"/>
      <point x="147" y="87"/>
      <point x="147" y="122" type="curve" smooth="yes"/>
      <point x="147" y="155"/>
      <point x="158" y="173"/>
      <point x="252" y="200" type="curve" smooth="yes"/>
      <point x="314" y="218" type="line" smooth="yes"/>
      <point x="428" y="252"/>
      <point x="464" y="287"/>
      <point x="464" y="350" type="curve" smooth="yes"/>
      <point x="464" y="422"/>
      <point x="388" y="472"/>
      <point x="276" y="472" type="curve" smooth="yes"/>
      <point x="152" y="472"/>
      <point x="66" y="408"/>
      <point x="66" y="319" type="curve"/>
      <point x="152" y="319" type="line"/>
      <point x="152" y="365"/>
      <point x="197" y="396"/>
      <point x="268" y="396" type="curve" smooth="yes"/>
      <point x="332" y="396"/>
      <point x="372" y="376"/>
      <point x="372" y="344" type="curve" smooth="yes"/>
      <point x="372" y="312"/>
      <point x="326" y="289"/>
      <point x="280" y="277" type="curve" smooth="yes"/>
      <point x="223" y="262" type="line" smooth="yes"/>
      <point x="102" y="230"/>
      <point x="54" y="189"/>
    </contour>
  </outline>
</glyph>
<glyph name="uni0436.loclBGR" format="2">
  <advance width="847"/>
  <outline>
    <contour>
      <point x="523" y="227" type="line"/>
      <point x="711" y="0" type="line"/>
      <point x="830" y="0" type="line"/>
      <point x="586" y="295" type="line"/>
    </contour>
    <contour>
      <point x="440" y="100" type="line"/>
      <point x="809" y="460" type="line"/>
      <point x="677" y="460" type="line"/>
      <point x="440" y="227" type="line"/>
    </contour>
    <contour>
      <point x="17" y="0" type="line"/>
      <point x="136" y="0" type="line"/>
      <point x="326" y="230" type="line"/>
      <point x="261" y="296" type="line"/>
    </contour>
    <contour>
      <point x="40" y="460" type="line"/>
      <point x="402" y="100" type="line"/>
      <point x="402" y="227" type="line"/>
      <point x="171" y="460" type="line"/>
    </contour>
    <contour>
      <point x="378" y="0" type="line"/>
      <point x="470" y="0" type="line"/>
      <point x="470" y="700" type="line"/>
      <point x="378" y="700" type="line"/>
    </contour>
  </outline>
  <guideline angle="134.715" x="371" y="258"/>
  <guideline angle="90" x="402" y="0"/>
  <guideline angle="90" x="440" y="0"/>
  <guideline angle="315.163" x="40" y="460"/>
  <guideline angle="44.3526" x="451" y="110"/>
</glyph>
<glyph name="uni043B.loclBGR" format="2">
  <advance width="554"/>
  <outline>
    <contour>
      <point x="17" y="0" type="line"/>
      <point x="117" y="0" type="line"/>
      <point x="281" y="375" type="line"/>
      <point x="273" y="375" type="line"/>
      <point x="437" y="0" type="line"/>
      <point x="537" y="0" type="line"/>
      <point x="337" y="460" type="line"/>
      <point x="217" y="460" type="line"/>
    </contour>
  </outline>
  <guideline angle="90" x="277" y="0"/>
</glyph>
<glyph name="uni044B.loclBGR" format="2">
  <advance width="886"/>
  <outline>
    <contour>
      <point x="66" y="190" type="line" smooth="yes"/>
      <point x="66" y="72"/>
      <point x="158" y="-12"/>
      <point x="309" y="-12" type="curve" smooth="yes"/>
      <point x="479" y="-12"/>
      <point x="555" y="96"/>
      <point x="555" y="190" type="curve" smooth="yes"/>
      <point x="555" y="296"/>
      <point x="494" y="390"/>
      <point x="340" y="390" type="curve" smooth="yes"/>
      <point x="236" y="390"/>
      <point x="159" y="341"/>
      <point x="134" y="281" type="curve"/>
      <point x="159" y="281" type="line"/>
      <point x="159" y="460" type="line"/>
      <point x="66" y="460" type="line"/>
    </contour>
    <contour>
      <point x="160" y="177" type="curve" smooth="yes"/>
      <point x="160" y="190" type="line" smooth="yes"/>
      <point x="160" y="278"/>
      <point x="238" y="318"/>
      <point x="310" y="318" type="curve" smooth="yes"/>
      <point x="408" y="318"/>
      <point x="463" y="261"/>
      <point x="463" y="190" type="curve" smooth="yes"/>
      <point x="463" y="119"/>
      <point x="398" y="60"/>
      <point x="310" y="60" type="curve" smooth="yes"/>
      <point x="215" y="60"/>
      <point x="160" y="102"/>
    </contour>
    <contour>
      <point x="691" y="0" type="line"/>
      <point x="783" y="0" type="line"/>
      <point x="783" y="460" type="line"/>
      <point x="691" y="460" type="line"/>
    </contour>
  </outline>
</glyph>
<glyph name="uni044C.loclBGR" format="2">
  <advance width="600"/>
  <outline>
    <contour>
      <point x="66" y="190" type="line" smooth="yes"/>
      <point x="66" y="68"/>
      <point x="163" y="-12"/>
      <point x="309" y="-12" type="curve" smooth="yes"/>
      <point x="451" y="-12"/>
      <point x="555" y="73"/>
      <point x="555" y="190" type="curve" smooth="yes"/>
      <point x="555" y="315"/>
      <point x="474" y="390"/>
      <point x="340" y="390" type="curve" smooth="yes"/>
      <point x="235" y="390"/>
      <point x="163" y="353"/>
      <point x="124" y="279" type="curve"/>
      <point x="159" y="279" type="line"/>
      <point x="159" y="460" type="line"/>
      <point x="66" y="460" type="line"/>
    </contour>
    <contour>
      <point x="160" y="177" type="curve" smooth="yes"/>
      <point x="160" y="190" type="line" smooth="yes"/>
      <point x="160" y="278"/>
      <point x="238" y="318"/>
      <point x="310" y="318" type="curve" smooth="yes"/>
      <point x="408" y="318"/>
      <point x="463" y="261"/>
      <point x="463" y="190" type="curve" smooth="yes"/>
      <point x="463" y="119"/>
      <point x="398" y="60"/>
      <point x="310" y="60" type="curve" smooth="yes"/>
      <point x="219" y="60"/>
      <point x="160" y="108"/>
    </contour>
  </outline>
</glyph>
<glyph name="uni044D.sc" format="2">
  <advance width="408"/>
  <outline>
    <contour>
      <point x="39" y="93" type="curve" smooth="yes"/>
      <point x="61" y="37"/>
      <point x="114" y="-10"/>
      <point x="197" y="-10" type="curve" smooth="yes"/>
      <point x="335" y="-10"/>
      <point x="379" y="128"/>
      <point x="379" y="233" type="curve" smooth="yes"/>
      <point x="379" y="349"/>
      <point x="337" y="470"/>
      <point x="197" y="470" type="curve" smooth="yes"/>
      <point x="117" y="470"/>
      <point x="41" y="416"/>
      <point x="30" y="336" type="curve"/>
      <point x="109" y="336" type="line"/>
      <point x="118" y="374"/>
      <point x="141" y="405"/>
      <point x="187" y="405" type="curve" smooth="yes"/>
      <point x="273" y="405"/>
      <point x="299" y="325"/>
      <point x="299" y="267" type="curve"/>
      <point x="180" y="267" type="line"/>
      <point x="180" y="245"/>
      <point x="180" y="223"/>
      <point x="180" y="201" type="curve"/>
      <point x="299" y="201" type="line"/>
      <point x="299" y="153"/>
      <point x="268" y="55"/>
      <point x="187" y="55" type="curve" smooth="yes"/>
      <point x="137" y="55"/>
      <point x="109" y="101"/>
      <point x="109" y="127" type="curve"/>
      <point x="30" y="127" type="line"/>
      <point x="32" y="116"/>
      <point x="35" y="104"/>
    </contour>
  </outline>
</glyph>
